<mxfile host="Electron" agent="Mozilla/5.0 (Windows NT 10.0; Win64; x64) AppleWebKit/537.36 (KHTML, like Gecko) draw.io/28.0.6 Chrome/138.0.7204.100 Electron/37.2.3 Safari/537.36" version="28.0.6">
  <diagram id="C5RBs43oDa-KdzZeNtuy" name="Page-1">
    <mxGraphModel dx="10666" dy="3364" grid="1" gridSize="10" guides="1" tooltips="1" connect="0" arrows="1" fold="1" page="1" pageScale="1" pageWidth="827" pageHeight="1169" math="0" shadow="0">
      <root>
        <mxCell id="WIyWlLk6GJQsqaUBKTNV-0" />
        <mxCell id="WIyWlLk6GJQsqaUBKTNV-1" parent="WIyWlLk6GJQsqaUBKTNV-0" />
        <mxCell id="M7CGMbNuYNeq0SnUNNgH-6" value="ทบทวนสัญลักษณ์" style="swimlane;fontFamily=Sarabun;fontSource=https%3A%2F%2Ffonts.googleapis.com%2Fcss%3Ffamily%3DSarabun;" parent="WIyWlLk6GJQsqaUBKTNV-1" vertex="1">
          <mxGeometry x="-4820" y="400" width="680" height="290" as="geometry" />
        </mxCell>
        <mxCell id="M7CGMbNuYNeq0SnUNNgH-2" value="&lt;font data-font-src=&quot;https://fonts.googleapis.com/css?family=Sarabun&quot; face=&quot;Sarabun&quot;&gt;เริ่มต้น&lt;/font&gt;" style="ellipse;whiteSpace=wrap;html=1;" parent="M7CGMbNuYNeq0SnUNNgH-6" vertex="1">
          <mxGeometry x="20" y="40" width="130" height="30" as="geometry" />
        </mxCell>
        <mxCell id="M7CGMbNuYNeq0SnUNNgH-5" value="" style="endArrow=classic;html=1;rounded=0;" parent="M7CGMbNuYNeq0SnUNNgH-6" edge="1">
          <mxGeometry width="50" height="50" relative="1" as="geometry">
            <mxPoint x="84.5" y="70" as="sourcePoint" />
            <mxPoint x="84.5" y="120" as="targetPoint" />
          </mxGeometry>
        </mxCell>
        <mxCell id="M7CGMbNuYNeq0SnUNNgH-3" value="&lt;font face=&quot;Sarabun&quot;&gt;สิ้นสุด&lt;/font&gt;" style="ellipse;whiteSpace=wrap;html=1;" parent="M7CGMbNuYNeq0SnUNNgH-6" vertex="1">
          <mxGeometry x="150" y="90" width="130" height="30" as="geometry" />
        </mxCell>
        <mxCell id="M7CGMbNuYNeq0SnUNNgH-4" value="" style="endArrow=classic;html=1;rounded=0;" parent="M7CGMbNuYNeq0SnUNNgH-6" edge="1">
          <mxGeometry width="50" height="50" relative="1" as="geometry">
            <mxPoint x="214.5" y="40" as="sourcePoint" />
            <mxPoint x="214.5" y="90" as="targetPoint" />
          </mxGeometry>
        </mxCell>
        <mxCell id="mvioNwK95yMqdUQ73LqQ-0" value="กระบวนการ" style="rounded=0;whiteSpace=wrap;html=1;fontFamily=Sarabun;fontSource=https%3A%2F%2Ffonts.googleapis.com%2Fcss%3Ffamily%3DSarabun;" parent="M7CGMbNuYNeq0SnUNNgH-6" vertex="1">
          <mxGeometry x="320" y="70" width="120" height="30" as="geometry" />
        </mxCell>
        <mxCell id="mvioNwK95yMqdUQ73LqQ-1" value="" style="endArrow=classic;html=1;rounded=0;" parent="M7CGMbNuYNeq0SnUNNgH-6" edge="1">
          <mxGeometry width="50" height="50" relative="1" as="geometry">
            <mxPoint x="379" y="40" as="sourcePoint" />
            <mxPoint x="379.5" y="70" as="targetPoint" />
          </mxGeometry>
        </mxCell>
        <mxCell id="mvioNwK95yMqdUQ73LqQ-2" value="" style="endArrow=classic;html=1;rounded=0;" parent="M7CGMbNuYNeq0SnUNNgH-6" edge="1">
          <mxGeometry width="50" height="50" relative="1" as="geometry">
            <mxPoint x="379.75" y="100" as="sourcePoint" />
            <mxPoint x="380.25" y="130" as="targetPoint" />
          </mxGeometry>
        </mxCell>
        <mxCell id="mvioNwK95yMqdUQ73LqQ-3" value="ประโยคเงื่อนไข" style="rhombus;whiteSpace=wrap;html=1;fontFamily=Sarabun;fontSource=https%3A%2F%2Ffonts.googleapis.com%2Fcss%3Ffamily%3DSarabun;" parent="M7CGMbNuYNeq0SnUNNgH-6" vertex="1">
          <mxGeometry x="490" y="60" width="100" height="60" as="geometry" />
        </mxCell>
        <mxCell id="mvioNwK95yMqdUQ73LqQ-4" value="" style="endArrow=classic;html=1;rounded=0;" parent="M7CGMbNuYNeq0SnUNNgH-6" edge="1">
          <mxGeometry width="50" height="50" relative="1" as="geometry">
            <mxPoint x="539.71" y="30" as="sourcePoint" />
            <mxPoint x="540.21" y="60" as="targetPoint" />
          </mxGeometry>
        </mxCell>
        <mxCell id="mvioNwK95yMqdUQ73LqQ-5" value="" style="endArrow=classic;html=1;rounded=0;" parent="M7CGMbNuYNeq0SnUNNgH-6" edge="1">
          <mxGeometry width="50" height="50" relative="1" as="geometry">
            <mxPoint x="539.71" y="120" as="sourcePoint" />
            <mxPoint x="540" y="175" as="targetPoint" />
          </mxGeometry>
        </mxCell>
        <mxCell id="mvioNwK95yMqdUQ73LqQ-7" value="จริง" style="edgeLabel;html=1;align=center;verticalAlign=middle;resizable=0;points=[];fontFamily=Sarabun;fontSource=https%3A%2F%2Ffonts.googleapis.com%2Fcss%3Ffamily%3DSarabun;" parent="mvioNwK95yMqdUQ73LqQ-5" vertex="1" connectable="0">
          <mxGeometry x="-0.4142" y="-1" relative="1" as="geometry">
            <mxPoint as="offset" />
          </mxGeometry>
        </mxCell>
        <mxCell id="mvioNwK95yMqdUQ73LqQ-6" value="" style="endArrow=classic;html=1;rounded=0;exitX=1;exitY=0.5;exitDx=0;exitDy=0;" parent="M7CGMbNuYNeq0SnUNNgH-6" source="mvioNwK95yMqdUQ73LqQ-3" edge="1">
          <mxGeometry width="50" height="50" relative="1" as="geometry">
            <mxPoint x="620" y="95" as="sourcePoint" />
            <mxPoint x="610" y="175" as="targetPoint" />
            <Array as="points">
              <mxPoint x="610" y="90" />
            </Array>
          </mxGeometry>
        </mxCell>
        <mxCell id="mvioNwK95yMqdUQ73LqQ-8" value="&lt;font data-font-src=&quot;https://fonts.googleapis.com/css?family=Sarabun&quot; face=&quot;Sarabun&quot;&gt;เท็จ&lt;/font&gt;" style="edgeLabel;html=1;align=center;verticalAlign=middle;resizable=0;points=[];" parent="mvioNwK95yMqdUQ73LqQ-6" vertex="1" connectable="0">
          <mxGeometry x="-0.0019" y="-2" relative="1" as="geometry">
            <mxPoint as="offset" />
          </mxGeometry>
        </mxCell>
        <mxCell id="mvioNwK95yMqdUQ73LqQ-9" value="&lt;font data-font-src=&quot;https://fonts.googleapis.com/css?family=Sarabun&quot; face=&quot;Sarabun&quot;&gt;ฟังก์ชัน/โมดูล&lt;/font&gt;" style="shape=process;whiteSpace=wrap;html=1;backgroundOutline=1;" parent="M7CGMbNuYNeq0SnUNNgH-6" vertex="1">
          <mxGeometry x="25" y="180" width="120" height="30" as="geometry" />
        </mxCell>
        <mxCell id="mvioNwK95yMqdUQ73LqQ-11" value="" style="endArrow=classic;html=1;rounded=0;" parent="M7CGMbNuYNeq0SnUNNgH-6" edge="1">
          <mxGeometry width="50" height="50" relative="1" as="geometry">
            <mxPoint x="84.70999999999998" y="150" as="sourcePoint" />
            <mxPoint x="85.20999999999998" y="180" as="targetPoint" />
          </mxGeometry>
        </mxCell>
        <mxCell id="mvioNwK95yMqdUQ73LqQ-12" value="" style="endArrow=classic;html=1;rounded=0;" parent="M7CGMbNuYNeq0SnUNNgH-6" edge="1">
          <mxGeometry width="50" height="50" relative="1" as="geometry">
            <mxPoint x="84.70999999999998" y="210" as="sourcePoint" />
            <mxPoint x="85.20999999999998" y="240" as="targetPoint" />
          </mxGeometry>
        </mxCell>
        <mxCell id="mvioNwK95yMqdUQ73LqQ-13" value="" style="strokeWidth=2;html=1;shape=mxgraph.flowchart.start_2;whiteSpace=wrap;" parent="M7CGMbNuYNeq0SnUNNgH-6" vertex="1">
          <mxGeometry x="205" y="185" width="20" height="20" as="geometry" />
        </mxCell>
        <mxCell id="mvioNwK95yMqdUQ73LqQ-16" value="" style="endArrow=classic;html=1;rounded=0;" parent="M7CGMbNuYNeq0SnUNNgH-6" edge="1">
          <mxGeometry width="50" height="50" relative="1" as="geometry">
            <mxPoint x="214.70999999999998" y="155" as="sourcePoint" />
            <mxPoint x="215.20999999999998" y="185" as="targetPoint" />
          </mxGeometry>
        </mxCell>
        <mxCell id="mvioNwK95yMqdUQ73LqQ-17" value="" style="endArrow=classic;html=1;rounded=0;entryX=0;entryY=0.5;entryDx=0;entryDy=0;entryPerimeter=0;" parent="M7CGMbNuYNeq0SnUNNgH-6" target="mvioNwK95yMqdUQ73LqQ-13" edge="1">
          <mxGeometry width="50" height="50" relative="1" as="geometry">
            <mxPoint x="189.99999999999997" y="155" as="sourcePoint" />
            <mxPoint x="190.49999999999997" y="185" as="targetPoint" />
            <Array as="points">
              <mxPoint x="190" y="180" />
            </Array>
          </mxGeometry>
        </mxCell>
        <mxCell id="mvioNwK95yMqdUQ73LqQ-18" value="" style="endArrow=classic;html=1;rounded=0;entryX=1;entryY=0.5;entryDx=0;entryDy=0;entryPerimeter=0;" parent="M7CGMbNuYNeq0SnUNNgH-6" target="mvioNwK95yMqdUQ73LqQ-13" edge="1">
          <mxGeometry width="50" height="50" relative="1" as="geometry">
            <mxPoint x="239.99999999999997" y="155" as="sourcePoint" />
            <mxPoint x="240.49999999999997" y="185" as="targetPoint" />
            <Array as="points">
              <mxPoint x="240" y="180" />
            </Array>
          </mxGeometry>
        </mxCell>
        <mxCell id="mvioNwK95yMqdUQ73LqQ-19" value="" style="endArrow=classic;html=1;rounded=0;" parent="M7CGMbNuYNeq0SnUNNgH-6" edge="1">
          <mxGeometry width="50" height="50" relative="1" as="geometry">
            <mxPoint x="214.70999999999998" y="205" as="sourcePoint" />
            <mxPoint x="215.20999999999998" y="235" as="targetPoint" />
          </mxGeometry>
        </mxCell>
        <mxCell id="mvioNwK95yMqdUQ73LqQ-20" value="&lt;font data-font-src=&quot;https://fonts.googleapis.com/css?family=Sarabun&quot; face=&quot;Sarabun&quot;&gt;ตัวเชื่อม&lt;/font&gt;" style="text;html=1;align=center;verticalAlign=middle;resizable=0;points=[];autosize=1;strokeColor=none;fillColor=none;" parent="M7CGMbNuYNeq0SnUNNgH-6" vertex="1">
          <mxGeometry x="220" y="190" width="60" height="30" as="geometry" />
        </mxCell>
        <mxCell id="mvioNwK95yMqdUQ73LqQ-25" value="" style="endArrow=classic;html=1;rounded=0;" parent="M7CGMbNuYNeq0SnUNNgH-6" edge="1">
          <mxGeometry width="50" height="50" relative="1" as="geometry">
            <mxPoint x="353.71" y="165" as="sourcePoint" />
            <mxPoint x="354.21" y="195" as="targetPoint" />
          </mxGeometry>
        </mxCell>
        <mxCell id="mvioNwK95yMqdUQ73LqQ-21" value="" style="verticalLabelPosition=bottom;verticalAlign=top;html=1;shape=offPageConnector;rounded=0;size=0.5;" parent="M7CGMbNuYNeq0SnUNNgH-6" vertex="1">
          <mxGeometry x="339" y="195" width="30" height="30" as="geometry" />
        </mxCell>
        <mxCell id="mvioNwK95yMqdUQ73LqQ-26" value="" style="endArrow=classic;html=1;rounded=0;" parent="M7CGMbNuYNeq0SnUNNgH-6" edge="1">
          <mxGeometry width="50" height="50" relative="1" as="geometry">
            <mxPoint x="405.71" y="195" as="sourcePoint" />
            <mxPoint x="406.21" y="225" as="targetPoint" />
          </mxGeometry>
        </mxCell>
        <mxCell id="mvioNwK95yMqdUQ73LqQ-27" value="" style="verticalLabelPosition=bottom;verticalAlign=top;html=1;shape=offPageConnector;rounded=0;size=0.5;" parent="M7CGMbNuYNeq0SnUNNgH-6" vertex="1">
          <mxGeometry x="391" y="165" width="30" height="30" as="geometry" />
        </mxCell>
        <mxCell id="mvioNwK95yMqdUQ73LqQ-28" value="หน้าต่อไป" style="text;html=1;align=center;verticalAlign=middle;resizable=0;points=[];autosize=1;strokeColor=none;fillColor=none;fontFamily=Sarabun;fontSource=https%3A%2F%2Ffonts.googleapis.com%2Fcss%3Ffamily%3DSarabun;" parent="M7CGMbNuYNeq0SnUNNgH-6" vertex="1">
          <mxGeometry x="345" y="220" width="70" height="30" as="geometry" />
        </mxCell>
        <mxCell id="mvioNwK95yMqdUQ73LqQ-29" value="ก" style="text;html=1;align=center;verticalAlign=middle;resizable=0;points=[];autosize=1;strokeColor=none;fillColor=none;fontFamily=Sarabun;fontSource=https%3A%2F%2Ffonts.googleapis.com%2Fcss%3Ffamily%3DSarabun;" parent="M7CGMbNuYNeq0SnUNNgH-6" vertex="1">
          <mxGeometry x="339" y="190" width="30" height="30" as="geometry" />
        </mxCell>
        <mxCell id="mvioNwK95yMqdUQ73LqQ-30" value="ก" style="text;html=1;align=center;verticalAlign=middle;resizable=0;points=[];autosize=1;strokeColor=none;fillColor=none;fontFamily=Sarabun;fontSource=https%3A%2F%2Ffonts.googleapis.com%2Fcss%3Ffamily%3DSarabun;" parent="M7CGMbNuYNeq0SnUNNgH-6" vertex="1">
          <mxGeometry x="391" y="160" width="30" height="30" as="geometry" />
        </mxCell>
        <mxCell id="mvioNwK95yMqdUQ73LqQ-32" value="แสดงผล/รับค่า" style="shape=parallelogram;perimeter=parallelogramPerimeter;whiteSpace=wrap;html=1;fixedSize=1;fontFamily=Sarabun;fontSource=https%3A%2F%2Ffonts.googleapis.com%2Fcss%3Ffamily%3DSarabun;" parent="M7CGMbNuYNeq0SnUNNgH-6" vertex="1">
          <mxGeometry x="450" y="210" width="120" height="30" as="geometry" />
        </mxCell>
        <mxCell id="mvioNwK95yMqdUQ73LqQ-33" value="" style="endArrow=classic;html=1;rounded=0;" parent="M7CGMbNuYNeq0SnUNNgH-6" edge="1">
          <mxGeometry width="50" height="50" relative="1" as="geometry">
            <mxPoint x="509.71" y="180" as="sourcePoint" />
            <mxPoint x="510.21" y="210" as="targetPoint" />
          </mxGeometry>
        </mxCell>
        <mxCell id="mvioNwK95yMqdUQ73LqQ-34" value="" style="endArrow=classic;html=1;rounded=0;" parent="M7CGMbNuYNeq0SnUNNgH-6" edge="1">
          <mxGeometry width="50" height="50" relative="1" as="geometry">
            <mxPoint x="509.71" y="240" as="sourcePoint" />
            <mxPoint x="510.21" y="270" as="targetPoint" />
          </mxGeometry>
        </mxCell>
        <mxCell id="mvioNwK95yMqdUQ73LqQ-36" value="a" style="swimlane;fontFamily=Sarabun;fontSource=https%3A%2F%2Ffonts.googleapis.com%2Fcss%3Ffamily%3DSarabun;fillColor=#fff2cc;strokeColor=#d6b656;movable=1;resizable=1;rotatable=1;deletable=1;editable=1;locked=0;connectable=1;" parent="WIyWlLk6GJQsqaUBKTNV-1" vertex="1">
          <mxGeometry x="-4920" y="1020" width="2940" height="2920" as="geometry" />
        </mxCell>
        <mxCell id="Mw3luOtF_zZze60LlKtk-0" value="" style="edgeStyle=orthogonalEdgeStyle;rounded=0;orthogonalLoop=1;jettySize=auto;html=1;" edge="1" parent="mvioNwK95yMqdUQ73LqQ-36" source="Mw3luOtF_zZze60LlKtk-1" target="Mw3luOtF_zZze60LlKtk-5">
          <mxGeometry relative="1" as="geometry" />
        </mxCell>
        <mxCell id="Mw3luOtF_zZze60LlKtk-1" value="&lt;span style=&quot;text-align: left; text-wrap-mode: nowrap;&quot;&gt;&lt;font style=&quot;font-size: 14px;&quot;&gt;ลาเต้ หวานเจี๊ยบ 35 บาท&lt;/font&gt;&lt;/span&gt;" style="rounded=0;whiteSpace=wrap;html=1;fontFamily=Sarabun;fontSource=https%3A%2F%2Ffonts.googleapis.com%2Fcss%3Ffamily%3DSarabun;fillColor=#fff2cc;strokeColor=#d6b656;" vertex="1" parent="mvioNwK95yMqdUQ73LqQ-36">
          <mxGeometry x="1429.7400000000002" y="360" width="149.58" height="32.2" as="geometry" />
        </mxCell>
        <mxCell id="Mw3luOtF_zZze60LlKtk-2" value="" style="edgeStyle=orthogonalEdgeStyle;rounded=0;orthogonalLoop=1;jettySize=auto;html=1;" edge="1" parent="mvioNwK95yMqdUQ73LqQ-36" source="Mw3luOtF_zZze60LlKtk-3" target="Mw3luOtF_zZze60LlKtk-7">
          <mxGeometry relative="1" as="geometry" />
        </mxCell>
        <mxCell id="Mw3luOtF_zZze60LlKtk-3" value="&lt;span style=&quot;text-align: left; text-wrap-mode: nowrap;&quot;&gt;&lt;font style=&quot;font-size: 14px;&quot;&gt;โค้ก กระป๋องละ 10 บาท&lt;/font&gt;&lt;/span&gt;" style="rounded=0;whiteSpace=wrap;html=1;fontFamily=Sarabun;fontSource=https%3A%2F%2Ffonts.googleapis.com%2Fcss%3Ffamily%3DSarabun;fillColor=#fff2cc;strokeColor=#d6b656;" vertex="1" parent="mvioNwK95yMqdUQ73LqQ-36">
          <mxGeometry x="1434.2199999999998" y="420.003069436646" width="140.63890677628768" height="32.19539584503088" as="geometry" />
        </mxCell>
        <mxCell id="Mw3luOtF_zZze60LlKtk-4" value="" style="edgeStyle=orthogonalEdgeStyle;rounded=0;orthogonalLoop=1;jettySize=auto;html=1;" edge="1" parent="mvioNwK95yMqdUQ73LqQ-36" source="Mw3luOtF_zZze60LlKtk-5" target="Mw3luOtF_zZze60LlKtk-7">
          <mxGeometry relative="1" as="geometry" />
        </mxCell>
        <mxCell id="Mw3luOtF_zZze60LlKtk-5" value="&lt;span style=&quot;text-align: left; text-wrap-mode: nowrap;&quot;&gt;&lt;font style=&quot;font-size: 14px;&quot;&gt;น้ำเขียว กระป๋องละ 12 บาท&lt;/font&gt;&lt;/span&gt;" style="rounded=0;whiteSpace=wrap;html=1;fontFamily=Sarabun;fontSource=https%3A%2F%2Ffonts.googleapis.com%2Fcss%3Ffamily%3DSarabun;fillColor=#fff2cc;strokeColor=#d6b656;" vertex="1" parent="mvioNwK95yMqdUQ73LqQ-36">
          <mxGeometry x="1422.6300000000006" y="490" width="163.82" height="32.2" as="geometry" />
        </mxCell>
        <mxCell id="Mw3luOtF_zZze60LlKtk-6" value="" style="edgeStyle=orthogonalEdgeStyle;rounded=0;orthogonalLoop=1;jettySize=auto;html=1;" edge="1" parent="mvioNwK95yMqdUQ73LqQ-36" source="Mw3luOtF_zZze60LlKtk-7" target="Mw3luOtF_zZze60LlKtk-36">
          <mxGeometry relative="1" as="geometry" />
        </mxCell>
        <mxCell id="Mw3luOtF_zZze60LlKtk-7" value="&lt;span style=&quot;text-align: left; text-wrap-mode: nowrap;&quot;&gt;&lt;font style=&quot;font-size: 14px;&quot;&gt;อเมริกาโน่ 30 บาท&lt;/font&gt;&lt;/span&gt;" style="rounded=0;whiteSpace=wrap;html=1;fontFamily=Sarabun;fontSource=https%3A%2F%2Ffonts.googleapis.com%2Fcss%3Ffamily%3DSarabun;fillColor=#fff2cc;strokeColor=#d6b656;" vertex="1" parent="mvioNwK95yMqdUQ73LqQ-36">
          <mxGeometry x="1434.2244660418733" y="550.003069436646" width="140.63890677628768" height="32.19539584503088" as="geometry" />
        </mxCell>
        <mxCell id="Mw3luOtF_zZze60LlKtk-8" value="" style="edgeStyle=orthogonalEdgeStyle;rounded=0;orthogonalLoop=1;jettySize=auto;html=1;" edge="1" parent="mvioNwK95yMqdUQ73LqQ-36" source="Mw3luOtF_zZze60LlKtk-9" target="Mw3luOtF_zZze60LlKtk-11">
          <mxGeometry relative="1" as="geometry" />
        </mxCell>
        <mxCell id="Mw3luOtF_zZze60LlKtk-9" value="&lt;span style=&quot;text-align: left; text-wrap-mode: nowrap;&quot;&gt;&lt;font style=&quot;font-size: 14px;&quot;&gt;เมล็ดทานตะวัน 13 บาท&lt;/font&gt;&lt;/span&gt;" style="rounded=0;whiteSpace=wrap;html=1;fontFamily=Sarabun;fontSource=https%3A%2F%2Ffonts.googleapis.com%2Fcss%3Ffamily%3DSarabun;fillColor=#fff2cc;strokeColor=#d6b656;" vertex="1" parent="mvioNwK95yMqdUQ73LqQ-36">
          <mxGeometry x="1434.2114325371854" y="677.8030694366462" width="140.63890677628768" height="32.19539584503088" as="geometry" />
        </mxCell>
        <mxCell id="Mw3luOtF_zZze60LlKtk-10" value="" style="edgeStyle=orthogonalEdgeStyle;rounded=0;orthogonalLoop=1;jettySize=auto;html=1;" edge="1" parent="mvioNwK95yMqdUQ73LqQ-36" source="Mw3luOtF_zZze60LlKtk-11" target="Mw3luOtF_zZze60LlKtk-13">
          <mxGeometry relative="1" as="geometry" />
        </mxCell>
        <mxCell id="Mw3luOtF_zZze60LlKtk-11" value="&lt;span style=&quot;text-align: left; text-wrap-mode: nowrap;&quot;&gt;&lt;font style=&quot;font-size: 14px;&quot;&gt;จิ้นส้มหมก 15 บาท&lt;/font&gt;&lt;/span&gt;" style="rounded=0;whiteSpace=wrap;html=1;fontFamily=Sarabun;fontSource=https%3A%2F%2Ffonts.googleapis.com%2Fcss%3Ffamily%3DSarabun;fillColor=#fff2cc;strokeColor=#d6b656;" vertex="1" parent="mvioNwK95yMqdUQ73LqQ-36">
          <mxGeometry x="1434.2253983155138" y="742.193069436646" width="140.63890677628768" height="32.19539584503088" as="geometry" />
        </mxCell>
        <mxCell id="Mw3luOtF_zZze60LlKtk-12" value="" style="edgeStyle=orthogonalEdgeStyle;rounded=0;orthogonalLoop=1;jettySize=auto;html=1;" edge="1" parent="mvioNwK95yMqdUQ73LqQ-36" source="Mw3luOtF_zZze60LlKtk-13" target="Mw3luOtF_zZze60LlKtk-15">
          <mxGeometry relative="1" as="geometry" />
        </mxCell>
        <mxCell id="Mw3luOtF_zZze60LlKtk-13" value="&lt;span style=&quot;text-align: left; text-wrap-mode: nowrap;&quot;&gt;&lt;font style=&quot;font-size: 14px;&quot;&gt;ถั่วแปบ 20 บาท&lt;/font&gt;&lt;/span&gt;" style="rounded=0;whiteSpace=wrap;html=1;fontFamily=Sarabun;fontSource=https%3A%2F%2Ffonts.googleapis.com%2Fcss%3Ffamily%3DSarabun;fillColor=#fff2cc;strokeColor=#d6b656;" vertex="1" parent="mvioNwK95yMqdUQ73LqQ-36">
          <mxGeometry x="1434.2110932237133" y="820.003069436646" width="140.63890677628768" height="32.19539584503088" as="geometry" />
        </mxCell>
        <mxCell id="Mw3luOtF_zZze60LlKtk-14" value="" style="edgeStyle=orthogonalEdgeStyle;rounded=0;orthogonalLoop=1;jettySize=auto;html=1;" edge="1" parent="mvioNwK95yMqdUQ73LqQ-36" source="Mw3luOtF_zZze60LlKtk-15" target="Mw3luOtF_zZze60LlKtk-18">
          <mxGeometry relative="1" as="geometry" />
        </mxCell>
        <mxCell id="Mw3luOtF_zZze60LlKtk-15" value="&lt;font style=&quot;font-size: 14px;&quot;&gt;เเสดงสินค้า&lt;/font&gt;" style="shape=parallelogram;perimeter=parallelogramPerimeter;whiteSpace=wrap;html=1;fixedSize=1;fontFamily=Sarabun;fontSource=https%3A%2F%2Ffonts.googleapis.com%2Fcss%3Ffamily%3DSarabun;fillColor=#dae8fc;strokeColor=#6c8ebf;" vertex="1" parent="mvioNwK95yMqdUQ73LqQ-36">
          <mxGeometry x="1434.2199999999998" y="900" width="140.63890677628768" height="32.19539584503088" as="geometry" />
        </mxCell>
        <mxCell id="Mw3luOtF_zZze60LlKtk-16" value="" style="edgeStyle=orthogonalEdgeStyle;rounded=0;orthogonalLoop=1;jettySize=auto;html=1;" edge="1" parent="mvioNwK95yMqdUQ73LqQ-36" source="Mw3luOtF_zZze60LlKtk-18" target="Mw3luOtF_zZze60LlKtk-20">
          <mxGeometry relative="1" as="geometry" />
        </mxCell>
        <mxCell id="Mw3luOtF_zZze60LlKtk-17" value="" style="edgeStyle=orthogonalEdgeStyle;rounded=0;orthogonalLoop=1;jettySize=auto;html=1;" edge="1" parent="mvioNwK95yMqdUQ73LqQ-36" source="Mw3luOtF_zZze60LlKtk-18" target="Mw3luOtF_zZze60LlKtk-22">
          <mxGeometry relative="1" as="geometry" />
        </mxCell>
        <mxCell id="Mw3luOtF_zZze60LlKtk-18" value="&lt;font style=&quot;font-size: 14px;&quot;&gt;เลือกประเภท&lt;/font&gt;&lt;div&gt;&lt;font style=&quot;font-size: 14px;&quot;&gt;สินค้า&lt;/font&gt;&lt;font style=&quot;font-size: 6px;&quot;&gt;?&lt;/font&gt;&lt;/div&gt;" style="rhombus;whiteSpace=wrap;html=1;fontFamily=Sarabun;fontSource=https%3A%2F%2Ffonts.googleapis.com%2Fcss%3Ffamily%3DSarabun;fillColor=#e1d5e7;strokeColor=#9673a6;" vertex="1" parent="mvioNwK95yMqdUQ73LqQ-36">
          <mxGeometry x="1445.94" y="1000" width="117.19908898023975" height="64.39079169006176" as="geometry" />
        </mxCell>
        <mxCell id="Mw3luOtF_zZze60LlKtk-19" value="" style="edgeStyle=orthogonalEdgeStyle;rounded=0;orthogonalLoop=1;jettySize=auto;html=1;" edge="1" parent="mvioNwK95yMqdUQ73LqQ-36" source="Mw3luOtF_zZze60LlKtk-20" target="Mw3luOtF_zZze60LlKtk-30">
          <mxGeometry relative="1" as="geometry" />
        </mxCell>
        <mxCell id="Mw3luOtF_zZze60LlKtk-20" value="&lt;font style=&quot;font-size: 14px;&quot;&gt;สินค้าประเภทน้ำ&lt;/font&gt;" style="shape=parallelogram;perimeter=parallelogramPerimeter;whiteSpace=wrap;html=1;fixedSize=1;fontFamily=Sarabun;fontSource=https%3A%2F%2Ffonts.googleapis.com%2Fcss%3Ffamily%3DSarabun;fillColor=#dae8fc;strokeColor=#6c8ebf;" vertex="1" parent="mvioNwK95yMqdUQ73LqQ-36">
          <mxGeometry x="1200.0700000000002" y="1016.0999999999999" width="140.63890677628768" height="32.19539584503088" as="geometry" />
        </mxCell>
        <mxCell id="Mw3luOtF_zZze60LlKtk-21" value="" style="edgeStyle=orthogonalEdgeStyle;rounded=0;orthogonalLoop=1;jettySize=auto;html=1;" edge="1" parent="mvioNwK95yMqdUQ73LqQ-36" source="Mw3luOtF_zZze60LlKtk-22" target="Mw3luOtF_zZze60LlKtk-114">
          <mxGeometry relative="1" as="geometry" />
        </mxCell>
        <mxCell id="Mw3luOtF_zZze60LlKtk-22" value="&lt;font style=&quot;font-size: 14px;&quot;&gt;สินค้าประเภทขนม&lt;/font&gt;" style="shape=parallelogram;perimeter=parallelogramPerimeter;whiteSpace=wrap;html=1;fixedSize=1;fontFamily=Sarabun;fontSource=https%3A%2F%2Ffonts.googleapis.com%2Fcss%3Ffamily%3DSarabun;fillColor=#dae8fc;strokeColor=#6c8ebf;" vertex="1" parent="mvioNwK95yMqdUQ73LqQ-36">
          <mxGeometry x="1664.0700000000002" y="1016.0999999999999" width="140.63890677628768" height="32.19539584503088" as="geometry" />
        </mxCell>
        <mxCell id="Mw3luOtF_zZze60LlKtk-23" value="เท็จ&lt;br&gt;&lt;div&gt;กด 0&lt;/div&gt;" style="text;html=1;align=center;verticalAlign=middle;resizable=0;points=[];autosize=1;strokeColor=none;fillColor=none;" vertex="1" parent="mvioNwK95yMqdUQ73LqQ-36">
          <mxGeometry x="1574.8500000000008" y="970" width="50" height="40" as="geometry" />
        </mxCell>
        <mxCell id="Mw3luOtF_zZze60LlKtk-24" value="&lt;span style=&quot;font-size: 14px; text-align: left; text-wrap-mode: nowrap;&quot;&gt;ลาเต้ หวานเจี๊ยบ 35 บาท&lt;/span&gt;" style="shape=parallelogram;perimeter=parallelogramPerimeter;whiteSpace=wrap;html=1;fixedSize=1;fontFamily=Sarabun;fontSource=https%3A%2F%2Ffonts.googleapis.com%2Fcss%3Ffamily%3DSarabun;fillColor=#dae8fc;strokeColor=#6c8ebf;" vertex="1" parent="mvioNwK95yMqdUQ73LqQ-36">
          <mxGeometry x="680.0700000000002" y="970.98" width="170" height="32.2" as="geometry" />
        </mxCell>
        <mxCell id="Mw3luOtF_zZze60LlKtk-25" value="&lt;span style=&quot;font-size: 14px; text-align: left; text-wrap-mode: nowrap;&quot;&gt;อเมริกาโน่ 30 บาท&lt;/span&gt;" style="shape=parallelogram;perimeter=parallelogramPerimeter;whiteSpace=wrap;html=1;fixedSize=1;fontFamily=Sarabun;fontSource=https%3A%2F%2Ffonts.googleapis.com%2Fcss%3Ffamily%3DSarabun;fillColor=#dae8fc;strokeColor=#6c8ebf;" vertex="1" parent="mvioNwK95yMqdUQ73LqQ-36">
          <mxGeometry x="680.0700000000002" y="1052.1999999999998" width="170" height="32.2" as="geometry" />
        </mxCell>
        <mxCell id="Mw3luOtF_zZze60LlKtk-26" value="&lt;span style=&quot;font-size: 14px; text-align: left; text-wrap-mode: nowrap;&quot;&gt;น้ำเขียว กระป๋องละ 12 บาท&lt;/span&gt;" style="shape=parallelogram;perimeter=parallelogramPerimeter;whiteSpace=wrap;html=1;fixedSize=1;fontFamily=Sarabun;fontSource=https%3A%2F%2Ffonts.googleapis.com%2Fcss%3Ffamily%3DSarabun;fillColor=#dae8fc;strokeColor=#6c8ebf;" vertex="1" parent="mvioNwK95yMqdUQ73LqQ-36">
          <mxGeometry x="670.0700000000002" y="890" width="190" height="32.2" as="geometry" />
        </mxCell>
        <mxCell id="Mw3luOtF_zZze60LlKtk-27" value="&lt;span style=&quot;font-size: 14px; text-align: left; text-wrap-mode: nowrap;&quot;&gt;โค้ก กระป๋องละ 10 บาท&lt;/span&gt;" style="shape=parallelogram;perimeter=parallelogramPerimeter;whiteSpace=wrap;html=1;fixedSize=1;fontFamily=Sarabun;fontSource=https%3A%2F%2Ffonts.googleapis.com%2Fcss%3Ffamily%3DSarabun;fillColor=#dae8fc;strokeColor=#6c8ebf;" vertex="1" parent="mvioNwK95yMqdUQ73LqQ-36">
          <mxGeometry x="680.0700000000002" y="1142.1999999999998" width="170" height="32.2" as="geometry" />
        </mxCell>
        <mxCell id="Mw3luOtF_zZze60LlKtk-28" style="edgeStyle=orthogonalEdgeStyle;rounded=0;orthogonalLoop=1;jettySize=auto;html=1;" edge="1" parent="mvioNwK95yMqdUQ73LqQ-36" source="Mw3luOtF_zZze60LlKtk-30" target="Mw3luOtF_zZze60LlKtk-24">
          <mxGeometry relative="1" as="geometry">
            <Array as="points">
              <mxPoint x="910.0700000000002" y="1032" />
              <mxPoint x="910.0700000000002" y="987" />
            </Array>
          </mxGeometry>
        </mxCell>
        <mxCell id="Mw3luOtF_zZze60LlKtk-29" style="edgeStyle=orthogonalEdgeStyle;rounded=0;orthogonalLoop=1;jettySize=auto;html=1;" edge="1" parent="mvioNwK95yMqdUQ73LqQ-36" source="Mw3luOtF_zZze60LlKtk-30" target="Mw3luOtF_zZze60LlKtk-25">
          <mxGeometry relative="1" as="geometry">
            <Array as="points">
              <mxPoint x="910.0700000000002" y="1032" />
              <mxPoint x="910.0700000000002" y="1068" />
            </Array>
          </mxGeometry>
        </mxCell>
        <mxCell id="Mw3luOtF_zZze60LlKtk-30" value="&lt;span style=&quot;font-size: 14px;&quot;&gt;สินค้า? &amp;gt;=0&lt;/span&gt;" style="rhombus;whiteSpace=wrap;html=1;fontFamily=Sarabun;fontSource=https%3A%2F%2Ffonts.googleapis.com%2Fcss%3Ffamily%3DSarabun;fillColor=#e1d5e7;strokeColor=#9673a6;" vertex="1" parent="mvioNwK95yMqdUQ73LqQ-36">
          <mxGeometry x="960.0700000000002" y="1000" width="117.19908898023975" height="64.39079169006176" as="geometry" />
        </mxCell>
        <mxCell id="Mw3luOtF_zZze60LlKtk-31" style="edgeStyle=orthogonalEdgeStyle;rounded=0;orthogonalLoop=1;jettySize=auto;html=1;entryX=0.967;entryY=0.367;entryDx=0;entryDy=0;entryPerimeter=0;" edge="1" parent="mvioNwK95yMqdUQ73LqQ-36" source="Mw3luOtF_zZze60LlKtk-30" target="Mw3luOtF_zZze60LlKtk-26">
          <mxGeometry relative="1" as="geometry">
            <Array as="points">
              <mxPoint x="910.0700000000002" y="1032" />
              <mxPoint x="910.0700000000002" y="902" />
            </Array>
          </mxGeometry>
        </mxCell>
        <mxCell id="Mw3luOtF_zZze60LlKtk-32" style="edgeStyle=orthogonalEdgeStyle;rounded=0;orthogonalLoop=1;jettySize=auto;html=1;entryX=0.937;entryY=0.496;entryDx=0;entryDy=0;entryPerimeter=0;" edge="1" parent="mvioNwK95yMqdUQ73LqQ-36" source="Mw3luOtF_zZze60LlKtk-30" target="Mw3luOtF_zZze60LlKtk-27">
          <mxGeometry relative="1" as="geometry">
            <Array as="points">
              <mxPoint x="910.0700000000002" y="1032" />
              <mxPoint x="910.0700000000002" y="1158" />
            </Array>
          </mxGeometry>
        </mxCell>
        <mxCell id="Mw3luOtF_zZze60LlKtk-33" value="" style="edgeStyle=orthogonalEdgeStyle;rounded=0;orthogonalLoop=1;jettySize=auto;html=1;" edge="1" parent="mvioNwK95yMqdUQ73LqQ-36" source="Mw3luOtF_zZze60LlKtk-34" target="Mw3luOtF_zZze60LlKtk-1">
          <mxGeometry relative="1" as="geometry" />
        </mxCell>
        <mxCell id="Mw3luOtF_zZze60LlKtk-34" value="&lt;div style=&quot;text-align: left;&quot;&gt;&lt;span style=&quot;background-color: transparent; color: light-dark(rgb(0, 0, 0), rgb(255, 255, 255)); font-size: 14px; text-wrap-mode: nowrap;&quot;&gt;สินค้าประเภทน้ำ&lt;/span&gt;&lt;/div&gt;" style="rounded=0;whiteSpace=wrap;html=1;fontFamily=Sarabun;fontSource=https%3A%2F%2Ffonts.googleapis.com%2Fcss%3Ffamily%3DSarabun;fillColor=#fff2cc;strokeColor=#d6b656;" vertex="1" parent="mvioNwK95yMqdUQ73LqQ-36">
          <mxGeometry x="1434.2100000000005" y="300" width="140.63890677628768" height="32.19539584503088" as="geometry" />
        </mxCell>
        <mxCell id="Mw3luOtF_zZze60LlKtk-35" value="" style="edgeStyle=orthogonalEdgeStyle;rounded=0;orthogonalLoop=1;jettySize=auto;html=1;" edge="1" parent="mvioNwK95yMqdUQ73LqQ-36" source="Mw3luOtF_zZze60LlKtk-36" target="Mw3luOtF_zZze60LlKtk-9">
          <mxGeometry relative="1" as="geometry" />
        </mxCell>
        <mxCell id="Mw3luOtF_zZze60LlKtk-36" value="&lt;span style=&quot;text-align: left; text-wrap-mode: nowrap;&quot;&gt;&lt;font style=&quot;font-size: 14px;&quot;&gt;สินค้าประเภทขนม&lt;/font&gt;&lt;/span&gt;" style="rounded=0;whiteSpace=wrap;html=1;fontFamily=Sarabun;fontSource=https%3A%2F%2Ffonts.googleapis.com%2Fcss%3Ffamily%3DSarabun;fillColor=#fff2cc;strokeColor=#d6b656;" vertex="1" parent="mvioNwK95yMqdUQ73LqQ-36">
          <mxGeometry x="1434.2199999999998" y="610" width="140.63890677628768" height="32.19539584503088" as="geometry" />
        </mxCell>
        <mxCell id="Mw3luOtF_zZze60LlKtk-37" value="&lt;span style=&quot;font-size: 14px; text-align: left; text-wrap-mode: nowrap;&quot;&gt;ลาเต้ หวานเจี๊ยบ&amp;nbsp;&lt;/span&gt;&lt;span style=&quot;font-size: 14px; text-align: left; text-wrap-mode: nowrap;&quot;&gt;หมด!!&lt;/span&gt;" style="shape=parallelogram;perimeter=parallelogramPerimeter;whiteSpace=wrap;html=1;fixedSize=1;fontFamily=Sarabun;fontSource=https%3A%2F%2Ffonts.googleapis.com%2Fcss%3Ffamily%3DSarabun;fillColor=#dae8fc;strokeColor=#6c8ebf;" vertex="1" parent="mvioNwK95yMqdUQ73LqQ-36">
          <mxGeometry x="680.0700000000002" y="590.98" width="170" height="32.2" as="geometry" />
        </mxCell>
        <mxCell id="Mw3luOtF_zZze60LlKtk-38" value="&lt;span style=&quot;font-size: 14px; text-align: left; text-wrap-mode: nowrap;&quot;&gt;อเมริกาโน่ 30&amp;nbsp;&lt;/span&gt;&lt;span style=&quot;font-size: 14px; text-align: left; text-wrap-mode: nowrap;&quot;&gt;หมด!!&lt;/span&gt;" style="shape=parallelogram;perimeter=parallelogramPerimeter;whiteSpace=wrap;html=1;fixedSize=1;fontFamily=Sarabun;fontSource=https%3A%2F%2Ffonts.googleapis.com%2Fcss%3Ffamily%3DSarabun;fillColor=#dae8fc;strokeColor=#6c8ebf;" vertex="1" parent="mvioNwK95yMqdUQ73LqQ-36">
          <mxGeometry x="680.0700000000002" y="672.1999999999998" width="170" height="32.2" as="geometry" />
        </mxCell>
        <mxCell id="Mw3luOtF_zZze60LlKtk-39" value="&lt;span style=&quot;font-size: 14px; text-align: left; text-wrap-mode: nowrap;&quot;&gt;น้ำเขียว กระป๋องละ หมด!!&lt;/span&gt;" style="shape=parallelogram;perimeter=parallelogramPerimeter;whiteSpace=wrap;html=1;fixedSize=1;fontFamily=Sarabun;fontSource=https%3A%2F%2Ffonts.googleapis.com%2Fcss%3Ffamily%3DSarabun;fillColor=#dae8fc;strokeColor=#6c8ebf;" vertex="1" parent="mvioNwK95yMqdUQ73LqQ-36">
          <mxGeometry x="670.0700000000002" y="510" width="190" height="32.2" as="geometry" />
        </mxCell>
        <mxCell id="Mw3luOtF_zZze60LlKtk-40" value="&lt;span style=&quot;font-size: 14px; text-align: left; text-wrap-mode: nowrap;&quot;&gt;โค้ก กระป๋องละ&amp;nbsp;&lt;/span&gt;&lt;span style=&quot;font-size: 14px; text-align: left; text-wrap-mode: nowrap;&quot;&gt;หมด!!&lt;/span&gt;" style="shape=parallelogram;perimeter=parallelogramPerimeter;whiteSpace=wrap;html=1;fixedSize=1;fontFamily=Sarabun;fontSource=https%3A%2F%2Ffonts.googleapis.com%2Fcss%3Ffamily%3DSarabun;fillColor=#dae8fc;strokeColor=#6c8ebf;" vertex="1" parent="mvioNwK95yMqdUQ73LqQ-36">
          <mxGeometry x="680.0700000000002" y="762.1999999999998" width="170" height="32.2" as="geometry" />
        </mxCell>
        <mxCell id="Mw3luOtF_zZze60LlKtk-41" value="จริง" style="text;html=1;align=center;verticalAlign=middle;resizable=0;points=[];autosize=1;strokeColor=none;fillColor=none;" vertex="1" parent="mvioNwK95yMqdUQ73LqQ-36">
          <mxGeometry x="865.0700000000002" y="1015" width="40" height="30" as="geometry" />
        </mxCell>
        <mxCell id="Mw3luOtF_zZze60LlKtk-42" style="edgeStyle=orthogonalEdgeStyle;rounded=0;orthogonalLoop=1;jettySize=auto;html=1;entryX=0.945;entryY=0.364;entryDx=0;entryDy=0;entryPerimeter=0;" edge="1" parent="mvioNwK95yMqdUQ73LqQ-36" source="Mw3luOtF_zZze60LlKtk-30" target="Mw3luOtF_zZze60LlKtk-40">
          <mxGeometry relative="1" as="geometry">
            <Array as="points">
              <mxPoint x="1020.0700000000002" y="774" />
            </Array>
          </mxGeometry>
        </mxCell>
        <mxCell id="Mw3luOtF_zZze60LlKtk-43" style="edgeStyle=orthogonalEdgeStyle;rounded=0;orthogonalLoop=1;jettySize=auto;html=1;entryX=0.966;entryY=0.444;entryDx=0;entryDy=0;entryPerimeter=0;" edge="1" parent="mvioNwK95yMqdUQ73LqQ-36" source="Mw3luOtF_zZze60LlKtk-30" target="Mw3luOtF_zZze60LlKtk-38">
          <mxGeometry relative="1" as="geometry">
            <Array as="points">
              <mxPoint x="1020.0700000000002" y="687" />
            </Array>
          </mxGeometry>
        </mxCell>
        <mxCell id="Mw3luOtF_zZze60LlKtk-44" style="edgeStyle=orthogonalEdgeStyle;rounded=0;orthogonalLoop=1;jettySize=auto;html=1;entryX=0.96;entryY=0.377;entryDx=0;entryDy=0;entryPerimeter=0;" edge="1" parent="mvioNwK95yMqdUQ73LqQ-36" source="Mw3luOtF_zZze60LlKtk-30" target="Mw3luOtF_zZze60LlKtk-39">
          <mxGeometry relative="1" as="geometry">
            <Array as="points">
              <mxPoint x="1020.0700000000002" y="522" />
            </Array>
          </mxGeometry>
        </mxCell>
        <mxCell id="Mw3luOtF_zZze60LlKtk-45" style="edgeStyle=orthogonalEdgeStyle;rounded=0;orthogonalLoop=1;jettySize=auto;html=1;entryX=0.981;entryY=0.366;entryDx=0;entryDy=0;entryPerimeter=0;" edge="1" parent="mvioNwK95yMqdUQ73LqQ-36" source="Mw3luOtF_zZze60LlKtk-30" target="Mw3luOtF_zZze60LlKtk-37">
          <mxGeometry relative="1" as="geometry">
            <Array as="points">
              <mxPoint x="1020.0700000000002" y="603" />
            </Array>
          </mxGeometry>
        </mxCell>
        <mxCell id="Mw3luOtF_zZze60LlKtk-46" value="เท็จ" style="text;html=1;align=center;verticalAlign=middle;resizable=0;points=[];autosize=1;strokeColor=none;fillColor=none;" vertex="1" parent="mvioNwK95yMqdUQ73LqQ-36">
          <mxGeometry x="1020.0700000000002" y="940.98" width="40" height="30" as="geometry" />
        </mxCell>
        <mxCell id="Mw3luOtF_zZze60LlKtk-47" value="" style="edgeStyle=orthogonalEdgeStyle;rounded=0;orthogonalLoop=1;jettySize=auto;html=1;" edge="1" parent="mvioNwK95yMqdUQ73LqQ-36" source="Mw3luOtF_zZze60LlKtk-48" target="Mw3luOtF_zZze60LlKtk-54">
          <mxGeometry relative="1" as="geometry" />
        </mxCell>
        <mxCell id="Mw3luOtF_zZze60LlKtk-48" value="" style="strokeWidth=2;html=1;shape=mxgraph.flowchart.start_2;whiteSpace=wrap;fillColor=#d5e8d4;strokeColor=#82b366;" vertex="1" parent="mvioNwK95yMqdUQ73LqQ-36">
          <mxGeometry x="610.0700000000002" y="1021.4700000000003" width="23.439817796047947" height="21.463597230020586" as="geometry" />
        </mxCell>
        <mxCell id="Mw3luOtF_zZze60LlKtk-49" style="edgeStyle=orthogonalEdgeStyle;rounded=0;orthogonalLoop=1;jettySize=auto;html=1;entryX=0.527;entryY=-0.02;entryDx=0;entryDy=0;entryPerimeter=0;" edge="1" parent="mvioNwK95yMqdUQ73LqQ-36" source="Mw3luOtF_zZze60LlKtk-26" target="Mw3luOtF_zZze60LlKtk-48">
          <mxGeometry relative="1" as="geometry" />
        </mxCell>
        <mxCell id="Mw3luOtF_zZze60LlKtk-50" style="edgeStyle=orthogonalEdgeStyle;rounded=0;orthogonalLoop=1;jettySize=auto;html=1;entryX=0.527;entryY=0.004;entryDx=0;entryDy=0;entryPerimeter=0;" edge="1" parent="mvioNwK95yMqdUQ73LqQ-36" source="Mw3luOtF_zZze60LlKtk-24" target="Mw3luOtF_zZze60LlKtk-48">
          <mxGeometry relative="1" as="geometry" />
        </mxCell>
        <mxCell id="Mw3luOtF_zZze60LlKtk-51" style="edgeStyle=orthogonalEdgeStyle;rounded=0;orthogonalLoop=1;jettySize=auto;html=1;entryX=0.505;entryY=1.032;entryDx=0;entryDy=0;entryPerimeter=0;" edge="1" parent="mvioNwK95yMqdUQ73LqQ-36" source="Mw3luOtF_zZze60LlKtk-25" target="Mw3luOtF_zZze60LlKtk-48">
          <mxGeometry relative="1" as="geometry" />
        </mxCell>
        <mxCell id="Mw3luOtF_zZze60LlKtk-52" style="edgeStyle=orthogonalEdgeStyle;rounded=0;orthogonalLoop=1;jettySize=auto;html=1;entryX=0.527;entryY=1.032;entryDx=0;entryDy=0;entryPerimeter=0;" edge="1" parent="mvioNwK95yMqdUQ73LqQ-36" source="Mw3luOtF_zZze60LlKtk-27" target="Mw3luOtF_zZze60LlKtk-48">
          <mxGeometry relative="1" as="geometry" />
        </mxCell>
        <mxCell id="Mw3luOtF_zZze60LlKtk-53" value="" style="edgeStyle=orthogonalEdgeStyle;rounded=0;orthogonalLoop=1;jettySize=auto;html=1;" edge="1" parent="mvioNwK95yMqdUQ73LqQ-36" source="Mw3luOtF_zZze60LlKtk-54" target="Mw3luOtF_zZze60LlKtk-56">
          <mxGeometry relative="1" as="geometry" />
        </mxCell>
        <mxCell id="Mw3luOtF_zZze60LlKtk-54" value="&lt;div style=&quot;text-align: left;&quot;&gt;&lt;span style=&quot;background-color: transparent; color: light-dark(rgb(0, 0, 0), rgb(255, 255, 255)); font-size: 14px; text-wrap-mode: nowrap;&quot;&gt;&lt;span style=&quot;white-space: pre;&quot;&gt;&#x9;&lt;span style=&quot;white-space: pre;&quot;&gt;&#x9;&lt;span style=&quot;white-space: pre;&quot;&gt;&#x9;&lt;/span&gt;&lt;/span&gt;&lt;/span&gt;เลือก&lt;/span&gt;&lt;/div&gt;&lt;div style=&quot;text-align: left;&quot;&gt;&lt;span style=&quot;font-size: 14px; text-wrap-mode: nowrap;&quot;&gt;น้ำเขียว&amp;nbsp;&lt;span style=&quot;white-space: pre;&quot;&gt;&#x9;&lt;/span&gt;&lt;span style=&quot;white-space: pre;&quot;&gt;&#x9;&lt;/span&gt;&lt;span style=&quot;white-space: pre;&quot;&gt;&#x9;&lt;/span&gt;กด&lt;span style=&quot;white-space: pre;&quot;&gt;&#x9;0&lt;span style=&quot;white-space: pre;&quot;&gt;&#x9;&lt;/span&gt;&lt;span style=&quot;white-space: pre;&quot;&gt;&#x9;&lt;/span&gt;&lt;/span&gt;&lt;/span&gt;&lt;span style=&quot;background-color: transparent; color: light-dark(rgb(0, 0, 0), rgb(255, 255, 255)); font-size: 14px; text-wrap-mode: nowrap;&quot;&gt;&lt;/span&gt;&lt;/div&gt;&lt;div style=&quot;text-align: left;&quot;&gt;&lt;span style=&quot;font-size: 14px; text-wrap-mode: nowrap;&quot;&gt;ลาเต้ หวานเจี๊ยบ&lt;span style=&quot;white-space: pre;&quot;&gt;&#x9;&lt;/span&gt;กด&lt;span style=&quot;white-space: pre;&quot;&gt;&#x9;&lt;/span&gt;1&lt;span style=&quot;white-space: pre;&quot;&gt;&#x9;&lt;/span&gt;&lt;span style=&quot;white-space: pre;&quot;&gt;&#x9;&lt;/span&gt;&lt;/span&gt;&lt;span style=&quot;font-size: 14px; text-wrap-mode: nowrap;&quot;&gt;&lt;/span&gt;&lt;/div&gt;&lt;div style=&quot;text-align: left;&quot;&gt;&lt;span style=&quot;font-size: 14px; text-wrap-mode: nowrap;&quot;&gt;อเมริกาโน่&lt;span style=&quot;white-space: pre;&quot;&gt;&#x9;&lt;/span&gt;&lt;span style=&quot;white-space: pre;&quot;&gt;&#x9;&lt;/span&gt;กด&lt;span style=&quot;white-space: pre;&quot;&gt;&#x9;&lt;/span&gt;2&lt;/span&gt;&lt;span style=&quot;font-size: 14px; text-wrap-mode: nowrap;&quot;&gt;&lt;/span&gt;&lt;/div&gt;&lt;div style=&quot;text-align: left;&quot;&gt;&lt;span style=&quot;font-size: 14px; text-wrap-mode: nowrap;&quot;&gt;โค้ก&lt;span style=&quot;white-space: pre;&quot;&gt;&#x9;&lt;/span&gt;&lt;span style=&quot;white-space: pre;&quot;&gt;&#x9;&lt;/span&gt;&lt;span style=&quot;white-space: pre;&quot;&gt;&#x9;&lt;/span&gt;&lt;span style=&quot;white-space: pre;&quot;&gt;&#x9;&lt;/span&gt;กด&lt;span style=&quot;white-space: pre;&quot;&gt;&#x9;&lt;/span&gt;3&lt;/span&gt;&lt;span style=&quot;font-size: 14px; text-wrap-mode: nowrap;&quot;&gt;&lt;/span&gt;&lt;/div&gt;&lt;div style=&quot;text-align: left;&quot;&gt;&lt;span style=&quot;font-size: 14px; text-wrap-mode: nowrap;&quot;&gt;สินค้า=0 (เลือกไม่ได้)&lt;/span&gt;&lt;/div&gt;" style="rounded=0;whiteSpace=wrap;html=1;fontFamily=Sarabun;fontSource=https%3A%2F%2Ffonts.googleapis.com%2Fcss%3Ffamily%3DSarabun;fillColor=#fff2cc;strokeColor=#d6b656;" vertex="1" parent="mvioNwK95yMqdUQ73LqQ-36">
          <mxGeometry x="350.07000000000016" y="980.25" width="210" height="103.9" as="geometry" />
        </mxCell>
        <mxCell id="Mw3luOtF_zZze60LlKtk-55" value="" style="edgeStyle=orthogonalEdgeStyle;rounded=0;orthogonalLoop=1;jettySize=auto;html=1;" edge="1" parent="mvioNwK95yMqdUQ73LqQ-36" source="Mw3luOtF_zZze60LlKtk-56" target="Mw3luOtF_zZze60LlKtk-58">
          <mxGeometry relative="1" as="geometry" />
        </mxCell>
        <mxCell id="Mw3luOtF_zZze60LlKtk-56" value="&lt;span style=&quot;font-size: 14px;&quot;&gt;คิดเงิน กด = 1&lt;/span&gt;&lt;div&gt;&lt;span style=&quot;font-size: 14px;&quot;&gt;เลือกเพิ่ม กด = 0&lt;/span&gt;&lt;/div&gt;" style="rhombus;whiteSpace=wrap;html=1;fontFamily=Sarabun;fontSource=https%3A%2F%2Ffonts.googleapis.com%2Fcss%3Ffamily%3DSarabun;fillColor=#e1d5e7;strokeColor=#9673a6;" vertex="1" parent="mvioNwK95yMqdUQ73LqQ-36">
          <mxGeometry x="375.07000000000016" y="1300" width="160" height="79.99" as="geometry" />
        </mxCell>
        <mxCell id="Mw3luOtF_zZze60LlKtk-57" value="" style="edgeStyle=orthogonalEdgeStyle;rounded=0;orthogonalLoop=1;jettySize=auto;html=1;" edge="1" parent="mvioNwK95yMqdUQ73LqQ-36" source="Mw3luOtF_zZze60LlKtk-58" target="Mw3luOtF_zZze60LlKtk-60">
          <mxGeometry relative="1" as="geometry" />
        </mxCell>
        <mxCell id="Mw3luOtF_zZze60LlKtk-58" value="&lt;div style=&quot;text-align: left;&quot;&gt;&lt;span style=&quot;background-color: transparent; color: light-dark(rgb(0, 0, 0), rgb(255, 255, 255)); font-size: 14px; text-wrap-mode: nowrap;&quot;&gt;ราคาสินค้า/&lt;/span&gt;&lt;span style=&quot;font-size: 14px; text-wrap-mode: nowrap; background-color: transparent; color: light-dark(rgb(0, 0, 0), rgb(255, 255, 255));&quot;&gt;จำนวน&lt;/span&gt;&lt;/div&gt;&lt;div style=&quot;text-align: left;&quot;&gt;&lt;span style=&quot;background-color: transparent; color: light-dark(rgb(0, 0, 0), rgb(255, 255, 255)); font-size: 14px; text-wrap-mode: nowrap;&quot;&gt;&lt;span style=&quot;white-space: pre;&quot;&gt;&#x9;&lt;/span&gt;ที่เลือก&lt;/span&gt;&lt;/div&gt;" style="rounded=0;whiteSpace=wrap;html=1;fontFamily=Sarabun;fontSource=https%3A%2F%2Ffonts.googleapis.com%2Fcss%3Ffamily%3DSarabun;fillColor=#fff2cc;strokeColor=#d6b656;" vertex="1" parent="mvioNwK95yMqdUQ73LqQ-36">
          <mxGeometry x="890.0700000000002" y="1316.94" width="140.64" height="46.1" as="geometry" />
        </mxCell>
        <mxCell id="Mw3luOtF_zZze60LlKtk-59" value="" style="edgeStyle=orthogonalEdgeStyle;rounded=0;orthogonalLoop=1;jettySize=auto;html=1;" edge="1" parent="mvioNwK95yMqdUQ73LqQ-36" source="Mw3luOtF_zZze60LlKtk-60" target="Mw3luOtF_zZze60LlKtk-70">
          <mxGeometry relative="1" as="geometry" />
        </mxCell>
        <mxCell id="Mw3luOtF_zZze60LlKtk-60" value="&lt;span style=&quot;font-size: 14px; text-align: left; text-wrap-mode: nowrap;&quot;&gt;สินค้าที่เลือก&lt;/span&gt;&lt;div&gt;&lt;span style=&quot;font-size: 14px; text-align: left; text-wrap-mode: nowrap;&quot;&gt;จำนวนสินค้า ....&lt;/span&gt;&lt;/div&gt;&lt;div&gt;&lt;span style=&quot;font-size: 14px; text-align: left; text-wrap-mode: nowrap;&quot;&gt;ราคา ....&lt;/span&gt;&lt;/div&gt;" style="shape=parallelogram;perimeter=parallelogramPerimeter;whiteSpace=wrap;html=1;fixedSize=1;fontFamily=Sarabun;fontSource=https%3A%2F%2Ffonts.googleapis.com%2Fcss%3Ffamily%3DSarabun;fillColor=#dae8fc;strokeColor=#6c8ebf;" vertex="1" parent="mvioNwK95yMqdUQ73LqQ-36">
          <mxGeometry x="1392.0400000000004" y="1310" width="225" height="60" as="geometry" />
        </mxCell>
        <mxCell id="Mw3luOtF_zZze60LlKtk-61" value="" style="edgeStyle=orthogonalEdgeStyle;rounded=0;orthogonalLoop=1;jettySize=auto;html=1;" edge="1" parent="mvioNwK95yMqdUQ73LqQ-36" source="Mw3luOtF_zZze60LlKtk-62" target="Mw3luOtF_zZze60LlKtk-64">
          <mxGeometry relative="1" as="geometry" />
        </mxCell>
        <mxCell id="Mw3luOtF_zZze60LlKtk-62" value="&lt;span style=&quot;font-size: 14px;&quot;&gt;ใส่เงินให้ครบตามราคา&lt;/span&gt;&lt;div&gt;&lt;span style=&quot;font-size: 14px;&quot;&gt;ราคา ....&lt;/span&gt;&lt;/div&gt;" style="shape=parallelogram;perimeter=parallelogramPerimeter;whiteSpace=wrap;html=1;fixedSize=1;fontFamily=Sarabun;fontSource=https%3A%2F%2Ffonts.googleapis.com%2Fcss%3Ffamily%3DSarabun;fillColor=#dae8fc;strokeColor=#6c8ebf;" vertex="1" parent="mvioNwK95yMqdUQ73LqQ-36">
          <mxGeometry x="1422.6300000000006" y="1440" width="165.54" height="40" as="geometry" />
        </mxCell>
        <mxCell id="Mw3luOtF_zZze60LlKtk-63" value="" style="edgeStyle=orthogonalEdgeStyle;rounded=0;orthogonalLoop=1;jettySize=auto;html=1;" edge="1" parent="mvioNwK95yMqdUQ73LqQ-36" source="Mw3luOtF_zZze60LlKtk-64" target="Mw3luOtF_zZze60LlKtk-67">
          <mxGeometry relative="1" as="geometry" />
        </mxCell>
        <mxCell id="Mw3luOtF_zZze60LlKtk-64" value="&lt;div style=&quot;text-align: left;&quot;&gt;ราคาสินค้าที่เลือก-เงินที่ใส่&lt;/div&gt;" style="rounded=0;whiteSpace=wrap;html=1;fontFamily=Sarabun;fontSource=https%3A%2F%2Ffonts.googleapis.com%2Fcss%3Ffamily%3DSarabun;fillColor=#fff2cc;strokeColor=#d6b656;" vertex="1" parent="mvioNwK95yMqdUQ73LqQ-36">
          <mxGeometry x="1432.48" y="1530" width="145.84" height="32.2" as="geometry" />
        </mxCell>
        <mxCell id="Mw3luOtF_zZze60LlKtk-65" value="" style="edgeStyle=orthogonalEdgeStyle;rounded=0;orthogonalLoop=1;jettySize=auto;html=1;" edge="1" parent="mvioNwK95yMqdUQ73LqQ-36" source="Mw3luOtF_zZze60LlKtk-67" target="Mw3luOtF_zZze60LlKtk-68">
          <mxGeometry relative="1" as="geometry" />
        </mxCell>
        <mxCell id="Mw3luOtF_zZze60LlKtk-66" value="" style="edgeStyle=orthogonalEdgeStyle;rounded=0;orthogonalLoop=1;jettySize=auto;html=1;" edge="1" parent="mvioNwK95yMqdUQ73LqQ-36" source="Mw3luOtF_zZze60LlKtk-67" target="Mw3luOtF_zZze60LlKtk-75">
          <mxGeometry relative="1" as="geometry" />
        </mxCell>
        <mxCell id="Mw3luOtF_zZze60LlKtk-67" value="&lt;span style=&quot;font-size: 14px;&quot;&gt;เงินที่ใส่ &amp;gt; ราคาสินค้าที่เลือก&lt;/span&gt;" style="rhombus;whiteSpace=wrap;html=1;fontFamily=Sarabun;fontSource=https%3A%2F%2Ffonts.googleapis.com%2Fcss%3Ffamily%3DSarabun;fillColor=#e1d5e7;strokeColor=#9673a6;" vertex="1" parent="mvioNwK95yMqdUQ73LqQ-36">
          <mxGeometry x="1401.7800000000002" y="1620" width="205.52" height="140" as="geometry" />
        </mxCell>
        <mxCell id="Mw3luOtF_zZze60LlKtk-68" value="&lt;div style=&quot;text-align: left;&quot;&gt;ราคาสินค้าที่เลือก-เงินที่ใส่&lt;/div&gt;" style="rounded=0;whiteSpace=wrap;html=1;fontFamily=Sarabun;fontSource=https%3A%2F%2Ffonts.googleapis.com%2Fcss%3Ffamily%3DSarabun;fillColor=#fff2cc;strokeColor=#d6b656;" vertex="1" parent="mvioNwK95yMqdUQ73LqQ-36">
          <mxGeometry x="1680.0700000000002" y="1673.8999999999996" width="145.84" height="32.2" as="geometry" />
        </mxCell>
        <mxCell id="Mw3luOtF_zZze60LlKtk-69" value="" style="edgeStyle=orthogonalEdgeStyle;rounded=0;orthogonalLoop=1;jettySize=auto;html=1;" edge="1" parent="mvioNwK95yMqdUQ73LqQ-36" source="Mw3luOtF_zZze60LlKtk-70" target="Mw3luOtF_zZze60LlKtk-62">
          <mxGeometry relative="1" as="geometry" />
        </mxCell>
        <mxCell id="Mw3luOtF_zZze60LlKtk-70" value="" style="strokeWidth=2;html=1;shape=mxgraph.flowchart.start_2;whiteSpace=wrap;fillColor=#d5e8d4;strokeColor=#82b366;" vertex="1" parent="mvioNwK95yMqdUQ73LqQ-36">
          <mxGeometry x="1493.6800000000007" y="1390" width="23.439817796047947" height="21.463597230020586" as="geometry" />
        </mxCell>
        <mxCell id="Mw3luOtF_zZze60LlKtk-71" style="edgeStyle=orthogonalEdgeStyle;rounded=0;orthogonalLoop=1;jettySize=auto;html=1;entryX=1.019;entryY=0.503;entryDx=0;entryDy=0;entryPerimeter=0;" edge="1" parent="mvioNwK95yMqdUQ73LqQ-36" source="Mw3luOtF_zZze60LlKtk-68" target="Mw3luOtF_zZze60LlKtk-70">
          <mxGeometry relative="1" as="geometry">
            <Array as="points">
              <mxPoint x="1753.0700000000002" y="1401" />
            </Array>
          </mxGeometry>
        </mxCell>
        <mxCell id="Mw3luOtF_zZze60LlKtk-72" value="เท็จ" style="text;html=1;align=center;verticalAlign=middle;resizable=0;points=[];autosize=1;strokeColor=none;fillColor=none;" vertex="1" parent="mvioNwK95yMqdUQ73LqQ-36">
          <mxGeometry x="1617.0399999999995" y="1653.9899999999998" width="40" height="30" as="geometry" />
        </mxCell>
        <mxCell id="Mw3luOtF_zZze60LlKtk-73" value="" style="edgeStyle=orthogonalEdgeStyle;rounded=0;orthogonalLoop=1;jettySize=auto;html=1;" edge="1" parent="mvioNwK95yMqdUQ73LqQ-36" source="Mw3luOtF_zZze60LlKtk-75" target="Mw3luOtF_zZze60LlKtk-79">
          <mxGeometry relative="1" as="geometry" />
        </mxCell>
        <mxCell id="Mw3luOtF_zZze60LlKtk-74" value="" style="edgeStyle=orthogonalEdgeStyle;rounded=0;orthogonalLoop=1;jettySize=auto;html=1;" edge="1" parent="mvioNwK95yMqdUQ73LqQ-36" source="Mw3luOtF_zZze60LlKtk-75" target="Mw3luOtF_zZze60LlKtk-93">
          <mxGeometry relative="1" as="geometry" />
        </mxCell>
        <mxCell id="Mw3luOtF_zZze60LlKtk-75" value="&lt;span style=&quot;font-size: 14px;&quot;&gt;เงินที่ใส่ = ราคาสินค้าที่เลือก&lt;/span&gt;" style="rhombus;whiteSpace=wrap;html=1;fontFamily=Sarabun;fontSource=https%3A%2F%2Ffonts.googleapis.com%2Fcss%3Ffamily%3DSarabun;fillColor=#e1d5e7;strokeColor=#9673a6;" vertex="1" parent="mvioNwK95yMqdUQ73LqQ-36">
          <mxGeometry x="1401.77" y="1810" width="205.52" height="140" as="geometry" />
        </mxCell>
        <mxCell id="Mw3luOtF_zZze60LlKtk-76" value="จริง" style="text;html=1;align=center;verticalAlign=middle;resizable=0;points=[];autosize=1;strokeColor=none;fillColor=none;" vertex="1" parent="mvioNwK95yMqdUQ73LqQ-36">
          <mxGeometry x="1510.0700000000002" y="1770" width="40" height="30" as="geometry" />
        </mxCell>
        <mxCell id="Mw3luOtF_zZze60LlKtk-77" value="" style="edgeStyle=orthogonalEdgeStyle;rounded=0;orthogonalLoop=1;jettySize=auto;html=1;" edge="1" parent="mvioNwK95yMqdUQ73LqQ-36" source="Mw3luOtF_zZze60LlKtk-79" target="Mw3luOtF_zZze60LlKtk-82">
          <mxGeometry relative="1" as="geometry" />
        </mxCell>
        <mxCell id="Mw3luOtF_zZze60LlKtk-78" value="" style="edgeStyle=orthogonalEdgeStyle;rounded=0;orthogonalLoop=1;jettySize=auto;html=1;" edge="1" parent="mvioNwK95yMqdUQ73LqQ-36" source="Mw3luOtF_zZze60LlKtk-79" target="Mw3luOtF_zZze60LlKtk-95">
          <mxGeometry relative="1" as="geometry" />
        </mxCell>
        <mxCell id="Mw3luOtF_zZze60LlKtk-79" value="&lt;div style=&quot;text-align: left;&quot;&gt;&lt;span style=&quot;font-size: 14px; text-wrap-mode: nowrap;&quot;&gt;ใช่ลาเต้กับ&lt;/span&gt;&lt;span style=&quot;font-size: 14px; text-wrap-mode: nowrap; background-color: transparent; color: light-dark(rgb(0, 0, 0), rgb(255, 255, 255));&quot;&gt;อเมริกาโน่มั้ย?&lt;/span&gt;&lt;/div&gt;" style="rhombus;whiteSpace=wrap;html=1;fontFamily=Sarabun;fontSource=https%3A%2F%2Ffonts.googleapis.com%2Fcss%3Ffamily%3DSarabun;fillColor=#e1d5e7;strokeColor=#9673a6;" vertex="1" parent="mvioNwK95yMqdUQ73LqQ-36">
          <mxGeometry x="1401.77" y="2030" width="205.52" height="140" as="geometry" />
        </mxCell>
        <mxCell id="Mw3luOtF_zZze60LlKtk-80" value="" style="edgeStyle=orthogonalEdgeStyle;rounded=0;orthogonalLoop=1;jettySize=auto;html=1;" edge="1" parent="mvioNwK95yMqdUQ73LqQ-36" source="Mw3luOtF_zZze60LlKtk-82" target="Mw3luOtF_zZze60LlKtk-84">
          <mxGeometry relative="1" as="geometry" />
        </mxCell>
        <mxCell id="Mw3luOtF_zZze60LlKtk-81" value="" style="edgeStyle=orthogonalEdgeStyle;rounded=0;orthogonalLoop=1;jettySize=auto;html=1;" edge="1" parent="mvioNwK95yMqdUQ73LqQ-36" source="Mw3luOtF_zZze60LlKtk-82" target="Mw3luOtF_zZze60LlKtk-86">
          <mxGeometry relative="1" as="geometry" />
        </mxCell>
        <mxCell id="Mw3luOtF_zZze60LlKtk-82" value="&lt;div style=&quot;text-align: left;&quot;&gt;&lt;span style=&quot;font-size: 14px; text-wrap-mode: nowrap;&quot;&gt;ใช่ลาเต้&lt;/span&gt;&lt;span style=&quot;font-size: 14px; text-wrap-mode: nowrap; background-color: transparent; color: light-dark(rgb(0, 0, 0), rgb(255, 255, 255));&quot;&gt;มั้ย?&lt;/span&gt;&lt;/div&gt;" style="rhombus;whiteSpace=wrap;html=1;fontFamily=Sarabun;fontSource=https%3A%2F%2Ffonts.googleapis.com%2Fcss%3Ffamily%3DSarabun;fillColor=#e1d5e7;strokeColor=#9673a6;" vertex="1" parent="mvioNwK95yMqdUQ73LqQ-36">
          <mxGeometry x="1401.77" y="2220" width="205.52" height="140" as="geometry" />
        </mxCell>
        <mxCell id="Mw3luOtF_zZze60LlKtk-83" value="" style="edgeStyle=orthogonalEdgeStyle;rounded=0;orthogonalLoop=1;jettySize=auto;html=1;" edge="1" parent="mvioNwK95yMqdUQ73LqQ-36" source="Mw3luOtF_zZze60LlKtk-84" target="Mw3luOtF_zZze60LlKtk-88">
          <mxGeometry relative="1" as="geometry" />
        </mxCell>
        <mxCell id="Mw3luOtF_zZze60LlKtk-84" value="&lt;div style=&quot;text-align: left;&quot;&gt;ชงลาเต้&lt;/div&gt;" style="rounded=0;whiteSpace=wrap;html=1;fontFamily=Sarabun;fontSource=https%3A%2F%2Ffonts.googleapis.com%2Fcss%3Ffamily%3DSarabun;fillColor=#fff2cc;strokeColor=#d6b656;" vertex="1" parent="mvioNwK95yMqdUQ73LqQ-36">
          <mxGeometry x="1431.6100000000001" y="2414.63" width="145.84" height="32.2" as="geometry" />
        </mxCell>
        <mxCell id="Mw3luOtF_zZze60LlKtk-85" value="" style="edgeStyle=orthogonalEdgeStyle;rounded=0;orthogonalLoop=1;jettySize=auto;html=1;" edge="1" parent="mvioNwK95yMqdUQ73LqQ-36" source="Mw3luOtF_zZze60LlKtk-86" target="Mw3luOtF_zZze60LlKtk-98">
          <mxGeometry relative="1" as="geometry" />
        </mxCell>
        <mxCell id="Mw3luOtF_zZze60LlKtk-86" value="&lt;div style=&quot;text-align: left;&quot;&gt;ชงอเมริกาโน่&lt;/div&gt;" style="rounded=0;whiteSpace=wrap;html=1;fontFamily=Sarabun;fontSource=https%3A%2F%2Ffonts.googleapis.com%2Fcss%3Ffamily%3DSarabun;fillColor=#fff2cc;strokeColor=#d6b656;" vertex="1" parent="mvioNwK95yMqdUQ73LqQ-36">
          <mxGeometry x="1658.8700000000003" y="2273.8999999999996" width="145.84" height="32.2" as="geometry" />
        </mxCell>
        <mxCell id="Mw3luOtF_zZze60LlKtk-87" value="" style="edgeStyle=orthogonalEdgeStyle;rounded=0;orthogonalLoop=1;jettySize=auto;html=1;" edge="1" parent="mvioNwK95yMqdUQ73LqQ-36" source="Mw3luOtF_zZze60LlKtk-88" target="Mw3luOtF_zZze60LlKtk-90">
          <mxGeometry relative="1" as="geometry" />
        </mxCell>
        <mxCell id="Mw3luOtF_zZze60LlKtk-88" value="" style="strokeWidth=2;html=1;shape=mxgraph.flowchart.start_2;whiteSpace=wrap;fillColor=#d5e8d4;strokeColor=#82b366;" vertex="1" parent="mvioNwK95yMqdUQ73LqQ-36">
          <mxGeometry x="1492.81" y="2500" width="23.439817796047947" height="21.463597230020586" as="geometry" />
        </mxCell>
        <mxCell id="Mw3luOtF_zZze60LlKtk-89" value="" style="edgeStyle=orthogonalEdgeStyle;rounded=0;orthogonalLoop=1;jettySize=auto;html=1;" edge="1" parent="mvioNwK95yMqdUQ73LqQ-36" source="Mw3luOtF_zZze60LlKtk-90" target="Mw3luOtF_zZze60LlKtk-99">
          <mxGeometry relative="1" as="geometry" />
        </mxCell>
        <mxCell id="Mw3luOtF_zZze60LlKtk-90" value="&lt;div style=&quot;text-align: left;&quot;&gt;นำสินค้าให้/เงินทอน&lt;/div&gt;" style="rounded=0;whiteSpace=wrap;html=1;fontFamily=Sarabun;fontSource=https%3A%2F%2Ffonts.googleapis.com%2Fcss%3Ffamily%3DSarabun;fillColor=#fff2cc;strokeColor=#d6b656;" vertex="1" parent="mvioNwK95yMqdUQ73LqQ-36">
          <mxGeometry x="1432.48" y="2590" width="145.84" height="32.2" as="geometry" />
        </mxCell>
        <mxCell id="Mw3luOtF_zZze60LlKtk-91" value="จริง" style="text;html=1;align=center;verticalAlign=middle;resizable=0;points=[];autosize=1;strokeColor=none;fillColor=none;" vertex="1" parent="mvioNwK95yMqdUQ73LqQ-36">
          <mxGeometry x="1510.0700000000002" y="1980" width="40" height="30" as="geometry" />
        </mxCell>
        <mxCell id="Mw3luOtF_zZze60LlKtk-92" value="" style="edgeStyle=orthogonalEdgeStyle;rounded=0;orthogonalLoop=1;jettySize=auto;html=1;" edge="1" parent="mvioNwK95yMqdUQ73LqQ-36" source="Mw3luOtF_zZze60LlKtk-93" target="Mw3luOtF_zZze60LlKtk-95">
          <mxGeometry relative="1" as="geometry" />
        </mxCell>
        <mxCell id="Mw3luOtF_zZze60LlKtk-93" value="&lt;div style=&quot;text-align: left;&quot;&gt;คิดเงินทอน&lt;/div&gt;" style="rounded=0;whiteSpace=wrap;html=1;fontFamily=Sarabun;fontSource=https%3A%2F%2Ffonts.googleapis.com%2Fcss%3Ffamily%3DSarabun;fillColor=#fff2cc;strokeColor=#d6b656;" vertex="1" parent="mvioNwK95yMqdUQ73LqQ-36">
          <mxGeometry x="2030.070000000001" y="1863.8999999999996" width="145.84" height="32.2" as="geometry" />
        </mxCell>
        <mxCell id="Mw3luOtF_zZze60LlKtk-94" value="" style="edgeStyle=orthogonalEdgeStyle;rounded=0;orthogonalLoop=1;jettySize=auto;html=1;" edge="1" parent="mvioNwK95yMqdUQ73LqQ-36" source="Mw3luOtF_zZze60LlKtk-95" target="Mw3luOtF_zZze60LlKtk-98">
          <mxGeometry relative="1" as="geometry">
            <Array as="points">
              <mxPoint x="2103.07" y="2511" />
            </Array>
          </mxGeometry>
        </mxCell>
        <mxCell id="Mw3luOtF_zZze60LlKtk-95" value="" style="strokeWidth=2;html=1;shape=mxgraph.flowchart.start_2;whiteSpace=wrap;fillColor=#d5e8d4;strokeColor=#82b366;" vertex="1" parent="mvioNwK95yMqdUQ73LqQ-36">
          <mxGeometry x="2091.27" y="2089.2700000000004" width="23.439817796047947" height="21.463597230020586" as="geometry" />
        </mxCell>
        <mxCell id="Mw3luOtF_zZze60LlKtk-96" value="จริง" style="text;html=1;align=center;verticalAlign=middle;resizable=0;points=[];autosize=1;strokeColor=none;fillColor=none;" vertex="1" parent="mvioNwK95yMqdUQ73LqQ-36">
          <mxGeometry x="1517.1200000000003" y="2190" width="40" height="30" as="geometry" />
        </mxCell>
        <mxCell id="Mw3luOtF_zZze60LlKtk-97" value="" style="edgeStyle=orthogonalEdgeStyle;rounded=0;orthogonalLoop=1;jettySize=auto;html=1;" edge="1" parent="mvioNwK95yMqdUQ73LqQ-36" source="Mw3luOtF_zZze60LlKtk-98" target="Mw3luOtF_zZze60LlKtk-88">
          <mxGeometry relative="1" as="geometry" />
        </mxCell>
        <mxCell id="Mw3luOtF_zZze60LlKtk-98" value="" style="strokeWidth=2;html=1;shape=mxgraph.flowchart.start_2;whiteSpace=wrap;fillColor=#d5e8d4;strokeColor=#82b366;" vertex="1" parent="mvioNwK95yMqdUQ73LqQ-36">
          <mxGeometry x="1720.0700000000002" y="2500" width="23.439817796047947" height="21.463597230020586" as="geometry" />
        </mxCell>
        <mxCell id="Mw3luOtF_zZze60LlKtk-99" value="&lt;font face=&quot;Sarabun&quot;&gt;&lt;span style=&quot;font-size: 14px;&quot;&gt;สิ้นสุด&lt;/span&gt;&lt;/font&gt;" style="ellipse;whiteSpace=wrap;html=1;" vertex="1" parent="mvioNwK95yMqdUQ73LqQ-36">
          <mxGeometry x="1440.0700000000002" y="2700" width="128.9189978782637" height="32.19539584503088" as="geometry" />
        </mxCell>
        <mxCell id="Mw3luOtF_zZze60LlKtk-100" value="" style="strokeWidth=2;html=1;shape=mxgraph.flowchart.start_2;whiteSpace=wrap;fillColor=#d5e8d4;strokeColor=#82b366;" vertex="1" parent="mvioNwK95yMqdUQ73LqQ-36">
          <mxGeometry x="600.0700000000002" y="640" width="23.439817796047947" height="21.463597230020586" as="geometry" />
        </mxCell>
        <mxCell id="Mw3luOtF_zZze60LlKtk-101" style="edgeStyle=orthogonalEdgeStyle;rounded=0;orthogonalLoop=1;jettySize=auto;html=1;entryX=0.573;entryY=-0.047;entryDx=0;entryDy=0;entryPerimeter=0;" edge="1" parent="mvioNwK95yMqdUQ73LqQ-36" source="Mw3luOtF_zZze60LlKtk-37" target="Mw3luOtF_zZze60LlKtk-100">
          <mxGeometry relative="1" as="geometry" />
        </mxCell>
        <mxCell id="Mw3luOtF_zZze60LlKtk-102" style="edgeStyle=orthogonalEdgeStyle;rounded=0;orthogonalLoop=1;jettySize=auto;html=1;entryX=0.573;entryY=1.018;entryDx=0;entryDy=0;entryPerimeter=0;" edge="1" parent="mvioNwK95yMqdUQ73LqQ-36" source="Mw3luOtF_zZze60LlKtk-38" target="Mw3luOtF_zZze60LlKtk-100">
          <mxGeometry relative="1" as="geometry" />
        </mxCell>
        <mxCell id="Mw3luOtF_zZze60LlKtk-103" style="edgeStyle=orthogonalEdgeStyle;rounded=0;orthogonalLoop=1;jettySize=auto;html=1;entryX=0.573;entryY=1.018;entryDx=0;entryDy=0;entryPerimeter=0;" edge="1" parent="mvioNwK95yMqdUQ73LqQ-36" source="Mw3luOtF_zZze60LlKtk-40" target="Mw3luOtF_zZze60LlKtk-100">
          <mxGeometry relative="1" as="geometry" />
        </mxCell>
        <mxCell id="Mw3luOtF_zZze60LlKtk-104" style="edgeStyle=orthogonalEdgeStyle;rounded=0;orthogonalLoop=1;jettySize=auto;html=1;entryX=0.572;entryY=-0.075;entryDx=0;entryDy=0;entryPerimeter=0;" edge="1" parent="mvioNwK95yMqdUQ73LqQ-36" source="Mw3luOtF_zZze60LlKtk-39" target="Mw3luOtF_zZze60LlKtk-100">
          <mxGeometry relative="1" as="geometry" />
        </mxCell>
        <mxCell id="Mw3luOtF_zZze60LlKtk-105" style="edgeStyle=orthogonalEdgeStyle;rounded=0;orthogonalLoop=1;jettySize=auto;html=1;" edge="1" parent="mvioNwK95yMqdUQ73LqQ-36" source="Mw3luOtF_zZze60LlKtk-100">
          <mxGeometry relative="1" as="geometry">
            <mxPoint x="455.07000000000016" y="980" as="targetPoint" />
          </mxGeometry>
        </mxCell>
        <mxCell id="Mw3luOtF_zZze60LlKtk-106" style="edgeStyle=orthogonalEdgeStyle;rounded=0;orthogonalLoop=1;jettySize=auto;html=1;entryX=0.076;entryY=0.413;entryDx=0;entryDy=0;entryPerimeter=0;" edge="1" parent="mvioNwK95yMqdUQ73LqQ-36" source="Mw3luOtF_zZze60LlKtk-56" target="Mw3luOtF_zZze60LlKtk-15">
          <mxGeometry relative="1" as="geometry">
            <Array as="points">
              <mxPoint x="270.07000000000016" y="1340" />
              <mxPoint x="270.07000000000016" y="410" />
              <mxPoint x="1320.0700000000002" y="410" />
              <mxPoint x="1320.0700000000002" y="913" />
            </Array>
          </mxGeometry>
        </mxCell>
        <mxCell id="Mw3luOtF_zZze60LlKtk-107" value="&lt;font style=&quot;font-size: 14px;&quot; data-font-src=&quot;https://fonts.googleapis.com/css?family=Sarabun&quot; face=&quot;Sarabun&quot;&gt;เริ่มต้น&lt;/font&gt;" style="ellipse;whiteSpace=wrap;html=1;" vertex="1" parent="mvioNwK95yMqdUQ73LqQ-36">
          <mxGeometry x="1440.0700000000002" y="200" width="128.9189978782637" height="32.19539584503088" as="geometry" />
        </mxCell>
        <mxCell id="Mw3luOtF_zZze60LlKtk-108" value="" style="edgeStyle=orthogonalEdgeStyle;rounded=0;orthogonalLoop=1;jettySize=auto;html=1;" edge="1" parent="mvioNwK95yMqdUQ73LqQ-36" source="Mw3luOtF_zZze60LlKtk-107" target="Mw3luOtF_zZze60LlKtk-34">
          <mxGeometry relative="1" as="geometry" />
        </mxCell>
        <mxCell id="Mw3luOtF_zZze60LlKtk-109" value="&lt;span style=&quot;font-size: 14px; text-align: left; text-wrap-mode: nowrap;&quot;&gt;จิ้นส้มหมก 15 บาท&lt;/span&gt;" style="shape=parallelogram;perimeter=parallelogramPerimeter;whiteSpace=wrap;html=1;fixedSize=1;fontFamily=Sarabun;fontSource=https%3A%2F%2Ffonts.googleapis.com%2Fcss%3Ffamily%3DSarabun;fillColor=#dae8fc;strokeColor=#6c8ebf;" vertex="1" parent="mvioNwK95yMqdUQ73LqQ-36">
          <mxGeometry x="2040.0700000000002" y="935" width="170" height="32.2" as="geometry" />
        </mxCell>
        <mxCell id="Mw3luOtF_zZze60LlKtk-110" value="" style="edgeStyle=orthogonalEdgeStyle;rounded=0;orthogonalLoop=1;jettySize=auto;html=1;" edge="1" parent="mvioNwK95yMqdUQ73LqQ-36" source="Mw3luOtF_zZze60LlKtk-111" target="Mw3luOtF_zZze60LlKtk-129">
          <mxGeometry relative="1" as="geometry" />
        </mxCell>
        <mxCell id="Mw3luOtF_zZze60LlKtk-111" value="&lt;span style=&quot;font-size: 14px; text-align: left; text-wrap-mode: nowrap;&quot;&gt;เมล็ดทานตะวัน 13 บาท&lt;/span&gt;" style="shape=parallelogram;perimeter=parallelogramPerimeter;whiteSpace=wrap;html=1;fixedSize=1;fontFamily=Sarabun;fontSource=https%3A%2F%2Ffonts.googleapis.com%2Fcss%3Ffamily%3DSarabun;fillColor=#dae8fc;strokeColor=#6c8ebf;" vertex="1" parent="mvioNwK95yMqdUQ73LqQ-36">
          <mxGeometry x="2040.0700000000002" y="1015.98" width="170" height="32.2" as="geometry" />
        </mxCell>
        <mxCell id="Mw3luOtF_zZze60LlKtk-112" value="&lt;span style=&quot;font-size: 14px; text-align: left; text-wrap-mode: nowrap;&quot;&gt;ถั่วแปบ 20 บาท&lt;/span&gt;" style="shape=parallelogram;perimeter=parallelogramPerimeter;whiteSpace=wrap;html=1;fixedSize=1;fontFamily=Sarabun;fontSource=https%3A%2F%2Ffonts.googleapis.com%2Fcss%3Ffamily%3DSarabun;fillColor=#dae8fc;strokeColor=#6c8ebf;" vertex="1" parent="mvioNwK95yMqdUQ73LqQ-36">
          <mxGeometry x="2040.0700000000002" y="1097.1999999999998" width="170" height="32.2" as="geometry" />
        </mxCell>
        <mxCell id="Mw3luOtF_zZze60LlKtk-113" value="" style="edgeStyle=orthogonalEdgeStyle;rounded=0;orthogonalLoop=1;jettySize=auto;html=1;" edge="1" parent="mvioNwK95yMqdUQ73LqQ-36" source="Mw3luOtF_zZze60LlKtk-114" target="Mw3luOtF_zZze60LlKtk-111">
          <mxGeometry relative="1" as="geometry" />
        </mxCell>
        <mxCell id="Mw3luOtF_zZze60LlKtk-114" value="&lt;span style=&quot;font-size: 14px;&quot;&gt;สินค้า? &amp;gt;=0&lt;/span&gt;" style="rhombus;whiteSpace=wrap;html=1;fontFamily=Sarabun;fontSource=https%3A%2F%2Ffonts.googleapis.com%2Fcss%3Ffamily%3DSarabun;fillColor=#e1d5e7;strokeColor=#9673a6;" vertex="1" parent="mvioNwK95yMqdUQ73LqQ-36">
          <mxGeometry x="1870.0700000000002" y="1000" width="117.19908898023975" height="64.39079169006176" as="geometry" />
        </mxCell>
        <mxCell id="Mw3luOtF_zZze60LlKtk-115" style="edgeStyle=orthogonalEdgeStyle;rounded=0;orthogonalLoop=1;jettySize=auto;html=1;entryX=0.067;entryY=0.383;entryDx=0;entryDy=0;entryPerimeter=0;" edge="1" parent="mvioNwK95yMqdUQ73LqQ-36" source="Mw3luOtF_zZze60LlKtk-114" target="Mw3luOtF_zZze60LlKtk-109">
          <mxGeometry relative="1" as="geometry">
            <Array as="points">
              <mxPoint x="2030.0700000000002" y="1032" />
              <mxPoint x="2030.0700000000002" y="947" />
            </Array>
          </mxGeometry>
        </mxCell>
        <mxCell id="Mw3luOtF_zZze60LlKtk-116" style="edgeStyle=orthogonalEdgeStyle;rounded=0;orthogonalLoop=1;jettySize=auto;html=1;entryX=0.059;entryY=0.398;entryDx=0;entryDy=0;entryPerimeter=0;" edge="1" parent="mvioNwK95yMqdUQ73LqQ-36" source="Mw3luOtF_zZze60LlKtk-114" target="Mw3luOtF_zZze60LlKtk-112">
          <mxGeometry relative="1" as="geometry">
            <Array as="points">
              <mxPoint x="2030.0700000000002" y="1032" />
              <mxPoint x="2030.0700000000002" y="1110" />
            </Array>
          </mxGeometry>
        </mxCell>
        <mxCell id="Mw3luOtF_zZze60LlKtk-117" value="&lt;span style=&quot;font-size: 14px; text-align: left; text-wrap-mode: nowrap;&quot;&gt;จิ้นส้มหมก 15 บาท&lt;/span&gt;" style="shape=parallelogram;perimeter=parallelogramPerimeter;whiteSpace=wrap;html=1;fixedSize=1;fontFamily=Sarabun;fontSource=https%3A%2F%2Ffonts.googleapis.com%2Fcss%3Ffamily%3DSarabun;fillColor=#dae8fc;strokeColor=#6c8ebf;" vertex="1" parent="mvioNwK95yMqdUQ73LqQ-36">
          <mxGeometry x="2030.0700000000002" y="672.1999999999998" width="170" height="32.2" as="geometry" />
        </mxCell>
        <mxCell id="Mw3luOtF_zZze60LlKtk-118" value="&lt;span style=&quot;font-size: 14px; text-align: left; text-wrap-mode: nowrap;&quot;&gt;เมล็ดทานตะวัน 13 บาท&lt;/span&gt;" style="shape=parallelogram;perimeter=parallelogramPerimeter;whiteSpace=wrap;html=1;fixedSize=1;fontFamily=Sarabun;fontSource=https%3A%2F%2Ffonts.googleapis.com%2Fcss%3Ffamily%3DSarabun;fillColor=#dae8fc;strokeColor=#6c8ebf;" vertex="1" parent="mvioNwK95yMqdUQ73LqQ-36">
          <mxGeometry x="2030.0700000000002" y="753.1800000000003" width="170" height="32.2" as="geometry" />
        </mxCell>
        <mxCell id="Mw3luOtF_zZze60LlKtk-119" value="&lt;span style=&quot;font-size: 14px; text-align: left; text-wrap-mode: nowrap;&quot;&gt;ถั่วแปบ 20 บาท&lt;/span&gt;" style="shape=parallelogram;perimeter=parallelogramPerimeter;whiteSpace=wrap;html=1;fixedSize=1;fontFamily=Sarabun;fontSource=https%3A%2F%2Ffonts.googleapis.com%2Fcss%3Ffamily%3DSarabun;fillColor=#dae8fc;strokeColor=#6c8ebf;" vertex="1" parent="mvioNwK95yMqdUQ73LqQ-36">
          <mxGeometry x="2030.0700000000002" y="834.3999999999996" width="170" height="32.2" as="geometry" />
        </mxCell>
        <mxCell id="Mw3luOtF_zZze60LlKtk-120" value="เท็จ" style="text;html=1;align=center;verticalAlign=middle;resizable=0;points=[];autosize=1;strokeColor=none;fillColor=none;" vertex="1" parent="mvioNwK95yMqdUQ73LqQ-36">
          <mxGeometry x="1920.0700000000002" y="940.98" width="40" height="30" as="geometry" />
        </mxCell>
        <mxCell id="Mw3luOtF_zZze60LlKtk-121" value="จริง" style="text;html=1;align=center;verticalAlign=middle;resizable=0;points=[];autosize=1;strokeColor=none;fillColor=none;" vertex="1" parent="mvioNwK95yMqdUQ73LqQ-36">
          <mxGeometry x="1990.0700000000002" y="1034.3900000000003" width="40" height="30" as="geometry" />
        </mxCell>
        <mxCell id="Mw3luOtF_zZze60LlKtk-122" value="จริง&lt;div&gt;กด 1&lt;/div&gt;" style="text;html=1;align=center;verticalAlign=middle;resizable=0;points=[];autosize=1;strokeColor=none;fillColor=none;" vertex="1" parent="mvioNwK95yMqdUQ73LqQ-36">
          <mxGeometry x="1401.77" y="970.98" width="50" height="40" as="geometry" />
        </mxCell>
        <mxCell id="Mw3luOtF_zZze60LlKtk-123" style="edgeStyle=orthogonalEdgeStyle;rounded=0;orthogonalLoop=1;jettySize=auto;html=1;entryX=0.066;entryY=0.359;entryDx=0;entryDy=0;entryPerimeter=0;" edge="1" parent="mvioNwK95yMqdUQ73LqQ-36" source="Mw3luOtF_zZze60LlKtk-114" target="Mw3luOtF_zZze60LlKtk-117">
          <mxGeometry relative="1" as="geometry">
            <Array as="points">
              <mxPoint x="1929.0700000000002" y="684" />
            </Array>
          </mxGeometry>
        </mxCell>
        <mxCell id="Mw3luOtF_zZze60LlKtk-124" style="edgeStyle=orthogonalEdgeStyle;rounded=0;orthogonalLoop=1;jettySize=auto;html=1;entryX=0.08;entryY=0.377;entryDx=0;entryDy=0;entryPerimeter=0;" edge="1" parent="mvioNwK95yMqdUQ73LqQ-36" source="Mw3luOtF_zZze60LlKtk-114" target="Mw3luOtF_zZze60LlKtk-118">
          <mxGeometry relative="1" as="geometry">
            <Array as="points">
              <mxPoint x="1929.0700000000002" y="765" />
            </Array>
          </mxGeometry>
        </mxCell>
        <mxCell id="Mw3luOtF_zZze60LlKtk-125" style="edgeStyle=orthogonalEdgeStyle;rounded=0;orthogonalLoop=1;jettySize=auto;html=1;entryX=0.075;entryY=0.315;entryDx=0;entryDy=0;entryPerimeter=0;" edge="1" parent="mvioNwK95yMqdUQ73LqQ-36" source="Mw3luOtF_zZze60LlKtk-114" target="Mw3luOtF_zZze60LlKtk-119">
          <mxGeometry relative="1" as="geometry">
            <Array as="points">
              <mxPoint x="1929.0700000000002" y="845" />
            </Array>
          </mxGeometry>
        </mxCell>
        <mxCell id="Mw3luOtF_zZze60LlKtk-126" value="" style="edgeStyle=orthogonalEdgeStyle;rounded=0;orthogonalLoop=1;jettySize=auto;html=1;" edge="1" parent="mvioNwK95yMqdUQ73LqQ-36" source="Mw3luOtF_zZze60LlKtk-127" target="Mw3luOtF_zZze60LlKtk-136">
          <mxGeometry relative="1" as="geometry" />
        </mxCell>
        <mxCell id="Mw3luOtF_zZze60LlKtk-127" value="&lt;div style=&quot;text-align: left;&quot;&gt;&lt;span style=&quot;background-color: transparent; color: light-dark(rgb(0, 0, 0), rgb(255, 255, 255)); font-size: 14px; text-wrap-mode: nowrap;&quot;&gt;&lt;span style=&quot;white-space: pre;&quot;&gt;&#x9;&lt;span style=&quot;white-space: pre;&quot;&gt;&#x9;&lt;span style=&quot;white-space: pre;&quot;&gt;&#x9;&lt;/span&gt;&lt;/span&gt;&lt;/span&gt;เลือก&lt;/span&gt;&lt;/div&gt;&lt;div style=&quot;text-align: left;&quot;&gt;&lt;span style=&quot;font-size: 14px; text-wrap-mode: nowrap; background-color: transparent; color: light-dark(rgb(0, 0, 0), rgb(255, 255, 255));&quot;&gt;จิ้นส้มหมก&lt;/span&gt;&lt;span style=&quot;font-size: 14px; text-wrap-mode: nowrap;&quot;&gt;&amp;nbsp;&lt;span style=&quot;white-space: pre;&quot;&gt;&#x9;&lt;/span&gt;&lt;span style=&quot;white-space: pre;&quot;&gt;&#x9;&lt;/span&gt;กด&lt;span style=&quot;white-space: pre;&quot;&gt;&#x9;0&lt;span style=&quot;white-space: pre;&quot;&gt;&#x9;&lt;/span&gt;&lt;span style=&quot;white-space: pre;&quot;&gt;&#x9;&lt;/span&gt;&lt;/span&gt;&lt;/span&gt;&lt;span style=&quot;background-color: transparent; color: light-dark(rgb(0, 0, 0), rgb(255, 255, 255)); font-size: 14px; text-wrap-mode: nowrap;&quot;&gt;&lt;/span&gt;&lt;/div&gt;&lt;div style=&quot;text-align: left;&quot;&gt;&lt;span style=&quot;font-size: 14px; text-wrap-mode: nowrap; background-color: transparent; color: light-dark(rgb(0, 0, 0), rgb(255, 255, 255));&quot;&gt;เมล็ดทานตะวัน&lt;/span&gt;&lt;span style=&quot;font-size: 14px; text-wrap-mode: nowrap;&quot;&gt;&lt;span style=&quot;white-space: pre;&quot;&gt;&#x9;&lt;/span&gt;กด&lt;span style=&quot;white-space: pre;&quot;&gt;&#x9;&lt;/span&gt;1&lt;span style=&quot;white-space: pre;&quot;&gt;&#x9;&lt;/span&gt;&lt;span style=&quot;white-space: pre;&quot;&gt;&#x9;&lt;/span&gt;&lt;/span&gt;&lt;span style=&quot;font-size: 14px; text-wrap-mode: nowrap;&quot;&gt;&lt;/span&gt;&lt;/div&gt;&lt;div style=&quot;text-align: left;&quot;&gt;&lt;span style=&quot;font-size: 14px; text-wrap-mode: nowrap; background-color: transparent; color: light-dark(rgb(0, 0, 0), rgb(255, 255, 255));&quot;&gt;ถั่วแปบ&lt;span style=&quot;white-space: pre;&quot;&gt;&#x9;&lt;/span&gt;&lt;span style=&quot;white-space: pre;&quot;&gt;&#x9;&lt;/span&gt;&lt;/span&gt;&lt;span style=&quot;font-size: 14px; text-wrap-mode: nowrap;&quot;&gt;&lt;span style=&quot;white-space: pre;&quot;&gt;&#x9;&lt;/span&gt;กด&lt;span style=&quot;white-space: pre;&quot;&gt;&#x9;&lt;/span&gt;2&lt;/span&gt;&lt;span style=&quot;font-size: 14px; text-wrap-mode: nowrap;&quot;&gt;&lt;/span&gt;&lt;/div&gt;&lt;div style=&quot;text-align: left;&quot;&gt;&lt;br&gt;&lt;/div&gt;&lt;div style=&quot;text-align: left;&quot;&gt;&lt;span style=&quot;font-size: 14px; text-wrap-mode: nowrap;&quot;&gt;สินค้า=0 (เลือกไม่ได้)&lt;/span&gt;&lt;/div&gt;" style="rounded=0;whiteSpace=wrap;html=1;fontFamily=Sarabun;fontSource=https%3A%2F%2Ffonts.googleapis.com%2Fcss%3Ffamily%3DSarabun;fillColor=#fff2cc;strokeColor=#d6b656;" vertex="1" parent="mvioNwK95yMqdUQ73LqQ-36">
          <mxGeometry x="2330.07" y="980.5" width="210" height="103.9" as="geometry" />
        </mxCell>
        <mxCell id="Mw3luOtF_zZze60LlKtk-128" value="" style="edgeStyle=orthogonalEdgeStyle;rounded=0;orthogonalLoop=1;jettySize=auto;html=1;" edge="1" parent="mvioNwK95yMqdUQ73LqQ-36" source="Mw3luOtF_zZze60LlKtk-129" target="Mw3luOtF_zZze60LlKtk-127">
          <mxGeometry relative="1" as="geometry" />
        </mxCell>
        <mxCell id="Mw3luOtF_zZze60LlKtk-129" value="" style="strokeWidth=2;html=1;shape=mxgraph.flowchart.start_2;whiteSpace=wrap;fillColor=#d5e8d4;strokeColor=#82b366;" vertex="1" parent="mvioNwK95yMqdUQ73LqQ-36">
          <mxGeometry x="2250.07" y="1021.7200000000003" width="23.439817796047947" height="21.463597230020586" as="geometry" />
        </mxCell>
        <mxCell id="Mw3luOtF_zZze60LlKtk-130" style="edgeStyle=orthogonalEdgeStyle;rounded=0;orthogonalLoop=1;jettySize=auto;html=1;entryX=0.486;entryY=-0.006;entryDx=0;entryDy=0;entryPerimeter=0;" edge="1" parent="mvioNwK95yMqdUQ73LqQ-36" source="Mw3luOtF_zZze60LlKtk-109" target="Mw3luOtF_zZze60LlKtk-129">
          <mxGeometry relative="1" as="geometry" />
        </mxCell>
        <mxCell id="Mw3luOtF_zZze60LlKtk-131" style="edgeStyle=orthogonalEdgeStyle;rounded=0;orthogonalLoop=1;jettySize=auto;html=1;entryX=0.52;entryY=0.963;entryDx=0;entryDy=0;entryPerimeter=0;" edge="1" parent="mvioNwK95yMqdUQ73LqQ-36" source="Mw3luOtF_zZze60LlKtk-112" target="Mw3luOtF_zZze60LlKtk-129">
          <mxGeometry relative="1" as="geometry" />
        </mxCell>
        <mxCell id="Mw3luOtF_zZze60LlKtk-132" value="จริง&lt;div&gt;กด 1&lt;/div&gt;" style="text;html=1;align=center;verticalAlign=middle;resizable=0;points=[];autosize=1;strokeColor=none;fillColor=none;" vertex="1" parent="mvioNwK95yMqdUQ73LqQ-36">
          <mxGeometry x="596.7900000000004" y="1290" width="50" height="40" as="geometry" />
        </mxCell>
        <mxCell id="Mw3luOtF_zZze60LlKtk-133" value="เท็จ&lt;br&gt;&lt;div&gt;กด 0&lt;/div&gt;" style="text;html=1;align=center;verticalAlign=middle;resizable=0;points=[];autosize=1;strokeColor=none;fillColor=none;" vertex="1" parent="mvioNwK95yMqdUQ73LqQ-36">
          <mxGeometry x="330.07000000000016" y="1276.94" width="50" height="40" as="geometry" />
        </mxCell>
        <mxCell id="Mw3luOtF_zZze60LlKtk-134" value="" style="edgeStyle=orthogonalEdgeStyle;rounded=0;orthogonalLoop=1;jettySize=auto;html=1;" edge="1" parent="mvioNwK95yMqdUQ73LqQ-36" source="Mw3luOtF_zZze60LlKtk-136" target="Mw3luOtF_zZze60LlKtk-140">
          <mxGeometry relative="1" as="geometry" />
        </mxCell>
        <mxCell id="Mw3luOtF_zZze60LlKtk-135" style="edgeStyle=orthogonalEdgeStyle;rounded=0;orthogonalLoop=1;jettySize=auto;html=1;" edge="1" parent="mvioNwK95yMqdUQ73LqQ-36" source="Mw3luOtF_zZze60LlKtk-136" target="Mw3luOtF_zZze60LlKtk-15">
          <mxGeometry relative="1" as="geometry">
            <Array as="points">
              <mxPoint x="2690.07" y="1340" />
              <mxPoint x="2690.07" y="410" />
              <mxPoint x="1680.0700000000002" y="410" />
              <mxPoint x="1680.0700000000002" y="916" />
            </Array>
          </mxGeometry>
        </mxCell>
        <mxCell id="Mw3luOtF_zZze60LlKtk-136" value="&lt;span style=&quot;font-size: 14px;&quot;&gt;คิดเงิน กด = 1&lt;/span&gt;&lt;div&gt;&lt;span style=&quot;font-size: 14px;&quot;&gt;เลือกเพิ่ม กด = 0&lt;/span&gt;&lt;/div&gt;" style="rhombus;whiteSpace=wrap;html=1;fontFamily=Sarabun;fontSource=https%3A%2F%2Ffonts.googleapis.com%2Fcss%3Ffamily%3DSarabun;fillColor=#e1d5e7;strokeColor=#9673a6;" vertex="1" parent="mvioNwK95yMqdUQ73LqQ-36">
          <mxGeometry x="2355.07" y="1300" width="160" height="79.99" as="geometry" />
        </mxCell>
        <mxCell id="Mw3luOtF_zZze60LlKtk-137" value="จริง&lt;div&gt;กด 1&lt;/div&gt;" style="text;html=1;align=center;verticalAlign=middle;resizable=0;points=[];autosize=1;strokeColor=none;fillColor=none;" vertex="1" parent="mvioNwK95yMqdUQ73LqQ-36">
          <mxGeometry x="2330.07" y="1276.9499999999998" width="50" height="40" as="geometry" />
        </mxCell>
        <mxCell id="Mw3luOtF_zZze60LlKtk-138" value="เท็จ&lt;br&gt;&lt;div&gt;กด 0&lt;/div&gt;" style="text;html=1;align=center;verticalAlign=middle;resizable=0;points=[];autosize=1;strokeColor=none;fillColor=none;" vertex="1" parent="mvioNwK95yMqdUQ73LqQ-36">
          <mxGeometry x="2515.07" y="1290" width="50" height="40" as="geometry" />
        </mxCell>
        <mxCell id="Mw3luOtF_zZze60LlKtk-139" value="" style="edgeStyle=orthogonalEdgeStyle;rounded=0;orthogonalLoop=1;jettySize=auto;html=1;" edge="1" parent="mvioNwK95yMqdUQ73LqQ-36" source="Mw3luOtF_zZze60LlKtk-140" target="Mw3luOtF_zZze60LlKtk-60">
          <mxGeometry relative="1" as="geometry" />
        </mxCell>
        <mxCell id="Mw3luOtF_zZze60LlKtk-140" value="&lt;div style=&quot;text-align: left;&quot;&gt;&lt;span style=&quot;background-color: transparent; color: light-dark(rgb(0, 0, 0), rgb(255, 255, 255)); font-size: 14px; text-wrap-mode: nowrap;&quot;&gt;ราคาสินค้า/&lt;/span&gt;&lt;span style=&quot;font-size: 14px; text-wrap-mode: nowrap; background-color: transparent; color: light-dark(rgb(0, 0, 0), rgb(255, 255, 255));&quot;&gt;จำนวน&lt;/span&gt;&lt;/div&gt;&lt;div style=&quot;text-align: left;&quot;&gt;&lt;span style=&quot;background-color: transparent; color: light-dark(rgb(0, 0, 0), rgb(255, 255, 255)); font-size: 14px; text-wrap-mode: nowrap;&quot;&gt;&lt;span style=&quot;white-space: pre;&quot;&gt;&#x9;&lt;/span&gt;ที่เลือก&lt;/span&gt;&lt;/div&gt;" style="rounded=0;whiteSpace=wrap;html=1;fontFamily=Sarabun;fontSource=https%3A%2F%2Ffonts.googleapis.com%2Fcss%3Ffamily%3DSarabun;fillColor=#fff2cc;strokeColor=#d6b656;" vertex="1" parent="mvioNwK95yMqdUQ73LqQ-36">
          <mxGeometry x="1920.0700000000002" y="1316.9499999999998" width="140.64" height="46.1" as="geometry" />
        </mxCell>
        <mxCell id="Mw3luOtF_zZze60LlKtk-141" style="edgeStyle=orthogonalEdgeStyle;rounded=0;orthogonalLoop=1;jettySize=auto;html=1;entryX=0.493;entryY=0.018;entryDx=0;entryDy=0;entryPerimeter=0;" edge="1" parent="mvioNwK95yMqdUQ73LqQ-36" source="Mw3luOtF_zZze60LlKtk-117" target="Mw3luOtF_zZze60LlKtk-127">
          <mxGeometry relative="1" as="geometry" />
        </mxCell>
        <mxCell id="Mw3luOtF_zZze60LlKtk-142" style="edgeStyle=orthogonalEdgeStyle;rounded=0;orthogonalLoop=1;jettySize=auto;html=1;entryX=0.493;entryY=0.026;entryDx=0;entryDy=0;entryPerimeter=0;" edge="1" parent="mvioNwK95yMqdUQ73LqQ-36" source="Mw3luOtF_zZze60LlKtk-118" target="Mw3luOtF_zZze60LlKtk-127">
          <mxGeometry relative="1" as="geometry" />
        </mxCell>
        <mxCell id="Mw3luOtF_zZze60LlKtk-143" style="edgeStyle=orthogonalEdgeStyle;rounded=0;orthogonalLoop=1;jettySize=auto;html=1;entryX=0.497;entryY=0.018;entryDx=0;entryDy=0;entryPerimeter=0;" edge="1" parent="mvioNwK95yMqdUQ73LqQ-36" source="Mw3luOtF_zZze60LlKtk-119" target="Mw3luOtF_zZze60LlKtk-127">
          <mxGeometry relative="1" as="geometry" />
        </mxCell>
        <mxCell id="mvioNwK95yMqdUQ73LqQ-70" value="&lt;font data-font-src=&quot;https://fonts.googleapis.com/css?family=Sarabun&quot; face=&quot;Sarabun&quot;&gt;โจทย์ปัญหา&lt;/font&gt;" style="swimlane;whiteSpace=wrap;html=1;" parent="WIyWlLk6GJQsqaUBKTNV-1" vertex="1">
          <mxGeometry x="-4820" y="700" width="680" height="270" as="geometry" />
        </mxCell>
        <mxCell id="mvioNwK95yMqdUQ73LqQ-71" value="&lt;font data-font-src=&quot;https://fonts.googleapis.com/css?family=Sarabun&quot; face=&quot;Sarabun&quot; style=&quot;font-size: 14px;&quot;&gt;จงเขียน Flowchart เพื่อแสดงขั้นตอนการทำงาน ของเครื่องขายน้ำอัตโนมัติที่ชื่อว่า &quot;ตะพาบลอย&quot;&lt;br&gt;โดยจะต้องมีสินค้าดังนี้&lt;br&gt;&lt;u&gt;ประเภทน้ำ&lt;span style=&quot;white-space: pre;&quot;&gt;&#x9;&lt;/span&gt;&lt;span style=&quot;white-space: pre;&quot;&gt;&#x9;&lt;/span&gt;&lt;span style=&quot;white-space: pre;&quot;&gt;&#x9;&lt;/span&gt;&lt;span style=&quot;white-space: pre;&quot;&gt;&#x9;&lt;/span&gt;&lt;span style=&quot;white-space: pre;&quot;&gt;&#x9;&lt;/span&gt;&lt;span style=&quot;white-space: pre;&quot;&gt;&#x9;&lt;span style=&quot;white-space: pre;&quot;&gt;&#x9;&lt;/span&gt;ข&lt;/span&gt;นม&lt;/u&gt;&lt;br&gt;&lt;span style=&quot;white-space: pre;&quot;&gt;&#x9;&lt;/span&gt;- โค้ก กระป๋องละ 10 บาท&lt;span style=&quot;white-space: pre;&quot;&gt;&#x9;&lt;/span&gt;&lt;span style=&quot;white-space: pre;&quot;&gt;&#x9;&lt;/span&gt;&lt;span style=&quot;white-space: pre;&quot;&gt;&#x9;&lt;/span&gt;&lt;span style=&quot;white-space: pre;&quot;&gt;&#x9;&lt;/span&gt;- เมล็ดทานตะวัน 13 บาท&lt;br&gt;&lt;span style=&quot;white-space: pre;&quot;&gt;&#x9;&lt;/span&gt;- น้ำเขียว กระป๋องละ 12 บาท&lt;span style=&quot;white-space: pre;&quot;&gt;&#x9;&lt;/span&gt;&lt;span style=&quot;white-space: pre;&quot;&gt;&#x9;&lt;/span&gt;&lt;span style=&quot;white-space: pre;&quot;&gt;&#x9;&lt;/span&gt;&amp;nbsp; &amp;nbsp;&lt;span style=&quot;white-space: pre;&quot;&gt;&#x9;&lt;/span&gt;- ถั่วแปบ 20 บาท&lt;br&gt;&lt;span style=&quot;white-space: pre;&quot;&gt;&#x9;&lt;/span&gt;- อเมริกาโน่ 30 บาท&lt;span style=&quot;white-space: pre;&quot;&gt;&#x9;&lt;/span&gt;&lt;span style=&quot;white-space: pre;&quot;&gt;&#x9;&lt;/span&gt;&lt;span style=&quot;white-space: pre;&quot;&gt;&#x9;&lt;/span&gt;&lt;span style=&quot;white-space: pre;&quot;&gt;&#x9;&lt;/span&gt;&lt;span style=&quot;white-space: pre;&quot;&gt;&#x9;&lt;/span&gt;- จิ้นส้มหมก 15 บาท&lt;br&gt;&lt;span style=&quot;white-space: pre;&quot;&gt;&#x9;&lt;/span&gt;- ลาเต้ หวานเจี๊ยบ 35 บาท&lt;span style=&quot;white-space: pre;&quot;&gt;&#x9;&lt;/span&gt;&lt;br&gt;&lt;br&gt;&lt;u&gt;สิ่งที่ระบบควรจะทำได้&lt;/u&gt;&lt;br&gt;&lt;span style=&quot;white-space: pre;&quot;&gt;&#x9;&lt;/span&gt;- ลูกค้าเลือกสินค้า, ระบบจะต้องรวมยอดขาย และรวมรายการสินค้าทั้งหมดที่ลูกค้าเลือก&lt;br&gt;&lt;span style=&quot;white-space: pre;&quot;&gt;&#x9;&lt;/span&gt;- สรุปยอดว่าเหลือเงินในตู้อีกเท่าไหร่ เหลือเหรียญอะไรบ้าง? ธนบัตรอะไรบ้าง? อย่างละเท่าไหร่?&lt;br&gt;&lt;br&gt;&lt;br&gt;&lt;/font&gt;" style="text;html=1;align=left;verticalAlign=middle;resizable=0;points=[];autosize=1;strokeColor=none;fillColor=none;fontSize=14;" parent="mvioNwK95yMqdUQ73LqQ-70" vertex="1">
          <mxGeometry x="25" y="30" width="590" height="240" as="geometry" />
        </mxCell>
      </root>
    </mxGraphModel>
  </diagram>
</mxfile>
